<?xml version="1.0" standalone="no"?>
<!DOCTYPE svg PUBLIC "-//W3C//DTD SVG 1.1//EN" "http://www.w3.org/Graphics/SVG/1.1/DTD/svg11.dtd" >
<svg xmlns="http://www.w3.org/2000/svg">
<metadata>Generated by IcoMoon</metadata>
<defs>
<font id="icomoon" horiz-adv-x="1024">
<font-face units-per-em="1024" ascent="960" descent="-64" />
<missing-glyph horiz-adv-x="1024" />
<glyph unicode="&#x20;" horiz-adv-x="512" d="" />
<glyph unicode="&#xe900;" glyph-name="arrow-down-left" d="M65.28 957.397c-28.629-6.187-54.571-31.445-62.165-60.416-2.731-10.453-2.901-40.661-2.901-448.981s0.171-438.528 2.901-448.981c5.547-21.291 22.443-42.368 42.581-53.291 18.901-10.24-7.637-9.685 466.304-9.685 473.813 0 447.275-0.555 466.389 9.685 13.099 6.955 30.336 24.789 36.779 38.059 5.291 10.997 8.383 23.911 8.383 37.547s-3.092 26.549-8.612 38.078l0.229-0.531c-6.443 13.269-23.68 31.104-36.779 38.059-18.944 10.112-2.432 9.685-359.723 9.685l-327.68 0.043 359.467 359.68c334.549 334.72 359.851 360.448 364.8 370.773 5.234 10.979 8.291 23.86 8.291 37.455 0 13.666-3.089 26.611-8.607 38.174l0.23-0.536c-9.101 16.57-22.385 29.854-38.455 38.702l-0.5 0.252c-11.027 5.288-23.972 8.377-37.638 8.377-13.595 0-26.476-3.057-37.994-8.521l0.538 0.23c-10.325-4.949-36.053-30.251-370.773-364.8l-359.68-359.467-0.043 327.68c0 357.291 0.427 340.779-9.685 359.723-6.101 11.435-24.448 29.781-35.883 35.883-16.768 8.96-39.125 11.605-59.776 7.125z" />
<glyph unicode="&#xe901;" glyph-name="arrow-down-right" d="M65.28 957.397c-28.629-6.187-54.571-31.445-62.165-60.416-1.785-6.685-2.81-14.36-2.81-22.275 0-14.585 3.481-28.357 9.659-40.53l-0.235 0.511c3.541-6.699 85.845-90.027 363.904-368.341l359.381-359.68-327.68-0.043c-357.376 0-340.949 0.427-359.637-9.685-51.755-28.032-61.056-98.005-18.304-137.643 5.205-4.821 13.44-10.923 18.304-13.568 18.901-10.24-7.637-9.685 466.304-9.685 473.813 0 447.275-0.555 466.389 9.685 11.435 6.101 29.781 24.448 35.883 35.883 10.24 19.115 9.685-7.424 9.685 466.389s0.555 447.275-9.685 466.389c-6.955 13.099-24.789 30.336-38.059 36.779-10.861 5.295-23.63 8.39-37.122 8.39-31.103 0-58.363-16.451-73.555-41.126l-0.214-0.373c-12.672-21.035-11.776 5.803-11.904-361.685l-0.085-329.387-359.68 359.381c-283.093 282.837-361.557 360.363-368.597 364.032-16.981 8.875-39.211 11.477-59.776 6.997z" />
<glyph unicode="&#xe902;" glyph-name="arrow-left" d="M498.56 958.272c-18.464-3.872-12.736 1.504-252.576-237.856-145.728-145.472-231.68-232.48-235.776-238.752-6.143-9.531-9.794-21.171-9.794-33.664s3.651-24.134 9.944-33.913l-0.15 0.249c8.768-13.312 460.512-464.352 471.072-470.336 4.224-2.4 12.832-5.248 19.136-6.336 3.56-0.71 7.652-1.117 11.839-1.117 27.266 0 50.505 17.24 59.412 41.414l0.141 0.439c2.944 7.808 3.52 12.448 2.976 24.16-1.216 27.584 12.288 12.256-181.664 206.528-95.136 95.296-172.96 173.824-172.96 174.496 0 0.704 170.304 1.44 378.464 1.696l378.432 0.416 9.856 4.64c5.44 2.528 13.568 8.416 18.144 13.12 32.128 32.96 20.992 86.048-21.696 103.616l-9.696 4-376.768 0.032c-207.2 0.032-376.736 0.608-376.736 1.28 0 0.704 77.824 79.232 172.96 174.528 193.952 194.272 180.448 178.944 181.664 206.528 0.768 16.96-2.816 28.864-12.384 41.408-6.208 8.096-20.224 18.24-29.664 21.44-8.224 2.784-25.504 3.776-34.176 1.984z" />
<glyph unicode="&#xe903;" glyph-name="arrow-left-circle" d="M470.179 958.138c-83.386-6.772-168.541-35.91-237.521-81.268-128.628-84.573-210.967-217.949-229.492-371.689-2.909-24.25-2.909-90.112 0-114.362 11.311-93.836 47.011-182.295 102.633-254.278 85.481-110.685 208.966-180.503 349.021-197.376 24.25-2.909 90.112-2.909 114.362 0 68.119 8.215 137.076 30.394 192.582 61.975 131.933 75.031 223.348 200.657 251.951 346.159 7.424 37.841 9.379 58.764 9.379 100.701s-1.955 62.86-9.379 100.701c-37.795 192.326-186.391 348.23-377.135 395.66-37.837 9.74-81.274 15.331-126.017 15.331-14.213 0-28.293-0.564-42.221-1.671l1.838 0.117zM558.080 864.279c151.087-15.988 284.090-116.62 342.109-258.816 20.666-50.641 30.092-100.026 30.092-157.463 0-45.428-4.166-75.427-16.477-118.156-30.348-105.449-107.101-199.889-204.265-251.322-63.418-33.559-125.231-48.849-197.539-48.849-59.974 0-108.381 9.565-161.792 31.953-126.236 54.216-219.216 164.767-248.101 299.126l-0.499 2.767c-10.799 52.224-10.799 116.736 0 168.96 28.137 136.239 123.695 250.973 252.928 303.709 63.441 25.879 133.329 35.537 203.543 28.090zM495.779 677.609c-1.954-0.827-4.483-1.715-7.068-2.471l-0.542-0.136c-0.442 0-45.638-44.753-100.445-99.421-109.894-109.638-107.799-107.148-107.799-127.581 0-20.41-2.001-18.036 106.892-126.65 75.404-75.241 100.538-99.305 106.403-101.935 10.031-4.492 27.229-4.655 36.701-0.326 9.635 4.375 17.245 11.241 22.644 20.457 4.096 6.959 4.655 9.681 4.655 22.435-0.023 10.845-0.815 16.012-3.188 20.48-1.745 3.281-28.602 31.511-59.671 62.72l-56.483 56.739h133.911c86.993 0.023 136.145 0.628 140.265 1.792 9.007 2.49 20.015 11.427 25.996 21.108 4.073 6.586 5.26 10.659 5.795 20.084 1.094 19.526-6.54 33.769-23.436 43.683l-7.866 4.631-274.595 0.931 56.46 56.716c31.046 31.185 57.786 59.369 59.439 62.604 3.817 7.564 5.167 24.483 2.676 33.722-2.63 9.658-11.311 20.666-21.132 26.74-9.937 6.144-28.463 7.843-39.61 3.677z" />
<glyph unicode="&#xe904;" glyph-name="arrow-right" d="M498.56 958.176c-18.048-3.552-36.128-17.952-44.224-35.264-4.064-8.64-4.64-11.936-4.64-26.912 0-29.92-15.2-12.384 181.184-209.088 95.136-95.296 172.96-173.824 172.96-174.528 0-0.672-169.536-1.248-376.736-1.28l-376.768-0.032-9.696-4c-29.056-11.936-44.544-40.288-39.008-71.328 3.744-20.832 18.304-38.304 39.008-46.816l9.696-4 376.768-0.032c207.2-0.032 376.736-0.608 376.736-1.28 0-0.704-77.824-79.232-172.96-174.528-193.952-194.272-180.448-178.944-181.664-206.528-0.768-17.088 2.816-28.864 12.704-41.824 19.296-25.28 57.856-31.904 83.84-14.432 5.824 3.936 101.792 98.752 238.656 235.776 177.504 177.792 229.696 231.008 232.576 237.12 9.568 20.448 8.32 44.992-3.2 62.464-4.128 6.272-89.888 93.088-235.776 238.656-175.456 175.008-231.168 229.664-237.184 232.512-8.459 4.225-18.427 6.697-28.973 6.697-4.708 0-9.301-0.493-13.73-1.43l0.431 0.076z" />
<glyph unicode="&#xe905;" glyph-name="arrow-right-circle" d="M470.179 958.138c-83.386-6.772-168.541-35.91-237.521-81.268-128.628-84.573-210.967-217.949-229.492-371.689-2.909-24.25-2.909-90.112 0-114.362 11.311-93.836 47.011-182.295 102.633-254.278 85.481-110.685 208.966-180.503 349.021-197.376 24.25-2.909 90.112-2.909 114.362 0 68.119 8.215 137.076 30.394 192.582 61.975 131.933 75.031 223.348 200.657 251.951 346.159 7.424 37.841 9.379 58.764 9.379 100.701s-1.955 62.86-9.379 100.701c-37.795 192.326-186.391 348.23-377.135 395.66-37.837 9.74-81.274 15.331-126.017 15.331-14.213 0-28.293-0.564-42.221-1.671l1.838 0.117zM558.080 864.279c151.087-15.988 284.090-116.62 342.109-258.816 20.666-50.641 30.092-100.026 30.092-157.463 0-45.428-4.166-75.427-16.477-118.156-30.348-105.449-107.101-199.889-204.265-251.322-63.418-33.559-125.231-48.849-197.539-48.849-59.974 0-108.381 9.565-161.792 31.953-126.236 54.216-219.216 164.767-248.101 299.126l-0.499 2.767c-10.799 52.224-10.799 116.736 0 168.96 28.137 136.239 123.695 250.973 252.928 303.709 63.441 25.879 133.329 35.537 203.543 28.090zM496.012 677.702c-9.286-3.444-18.129-11.031-24.111-20.666-4.655-7.494-5.12-9.565-5.12-22.877 0.023-10.938 0.815-16.151 3.188-20.62 1.722-3.281 28.556-31.488 59.625-62.673l56.506-56.716-137.332-0.465c-152.529-0.512-140.474 0.419-154.624-12.009-19.014-16.71-19.014-50.641 0-67.351 14.15-12.428 2.095-11.497 154.624-12.009l137.332-0.465-56.506-56.716c-31.069-31.185-57.903-59.392-59.625-62.673-4.375-8.262-4.468-32.628-0.163-40.518 5.236-9.635 13.731-17.92 22.551-22.039 11.171-5.213 27.462-5.399 38.423-0.489 11.101 5.004 203.008 196.678 209.105 208.873 5.795 11.567 5.841 27.369 0.116 39.331-3.235 6.772-24.46 28.858-102.819 106.915-54.295 54.132-101.423 99.747-104.704 101.399-7.983 4.026-27.834 4.98-36.468 1.769z" />
<glyph unicode="&#xe906;" glyph-name="arrow-up" d="M498.56 958.176c-18.304-3.616-12.512 1.824-252.576-237.76-145.728-145.472-231.68-232.48-235.776-238.752-17.312-26.272-10.688-64.48 14.528-83.744 12.96-9.888 24.736-13.472 41.824-12.704 27.584 1.216 12.256-12.288 206.528 181.664 95.296 95.136 173.824 172.96 174.528 172.96 0.672 0 1.248-169.536 1.28-376.736l0.032-376.768 4-9.696c11.968-29.088 39.616-44.224 71.072-38.912 20.832 3.488 38.528 18.144 47.072 38.912l4 9.696 0.032 376.768c0.032 207.2 0.608 376.736 1.28 376.736 0.704 0 79.232-77.824 174.528-172.96 196.704-196.384 179.168-181.184 209.088-181.184 14.976 0 18.272 0.576 26.912 4.64 11.456 5.344 24.864 18.368 30.112 29.216 9.568 19.712 8.256 44.672-3.232 62.112-4.128 6.272-89.888 93.088-235.776 238.656-175.456 175.008-231.168 229.664-237.184 232.512-8.459 4.225-18.427 6.697-28.973 6.697-4.708 0-9.301-0.493-13.73-1.43l0.431 0.076z" />
<glyph unicode="&#xe907;" glyph-name="arrow-up-circle" d="M470.179 958.138c-83.386-6.772-168.541-35.91-237.521-81.268-128.628-84.573-210.967-217.949-229.492-371.689-2.909-24.25-2.909-90.112 0-114.362 11.311-93.836 47.011-182.295 102.633-254.278 85.481-110.685 208.966-180.503 349.021-197.376 24.25-2.909 90.112-2.909 114.362 0 68.119 8.215 137.076 30.394 192.582 61.975 131.933 75.031 223.348 200.657 251.951 346.159 7.424 37.841 9.379 58.764 9.379 100.701s-1.955 62.86-9.379 100.701c-37.795 192.326-186.391 348.23-377.135 395.66-37.837 9.74-81.274 15.331-126.017 15.331-14.213 0-28.293-0.564-42.221-1.671l1.838 0.117zM558.080 864.279c151.087-15.988 284.090-116.62 342.109-258.816 20.666-50.641 30.092-100.026 30.092-157.463 0-45.428-4.166-75.427-16.477-118.156-30.348-105.449-107.101-199.889-204.265-251.322-63.418-33.559-125.231-48.849-197.539-48.849-59.974 0-108.381 9.565-161.792 31.953-126.236 54.216-219.216 164.767-248.101 299.126l-0.499 2.767c-10.799 52.224-10.799 116.736 0 168.96 28.137 136.239 123.695 250.973 252.928 303.709 63.441 25.879 133.329 35.537 203.543 28.090zM495.779 677.609c-1.954-0.827-4.483-1.715-7.068-2.471l-0.542-0.136c-0.442 0-45.638-44.753-100.445-99.421-109.894-109.638-107.799-107.148-107.799-127.581 0-18.269 9.076-32.977 26.019-42.193 7.913-4.305 32.279-4.212 40.518 0.163 3.281 1.745 31.488 28.579 62.673 59.625l56.716 56.46 0.465-137.309 0.465-137.286 4.631-7.866c9.914-16.896 24.157-24.529 43.683-23.436 9.425 0.535 13.498 1.722 20.084 5.795 9.681 5.981 18.618 16.989 21.108 25.996 1.164 4.119 1.769 53.271 1.792 140.288v133.935l56.739-56.529c31.209-31.092 59.439-57.949 62.72-59.671 4.445-2.351 9.681-3.165 20.48-3.188 12.753 0 15.476 0.559 22.435 4.655 15.546 9.123 23.575 22.924 23.599 40.564 0.047 20.41 2.071 17.99-106.868 126.534-54.295 54.132-101.423 99.747-104.704 101.399-8.122 4.096-27.857 4.98-36.701 1.676z" />
<glyph unicode="&#xe908;" glyph-name="arrow-up-left" d="M65.28 957.397c-28.629-6.187-54.571-31.445-62.165-60.416-2.731-10.453-2.901-40.661-2.901-448.981 0-488.619-1.024-448.811 11.776-470.059 15.406-25.049 42.666-41.5 73.769-41.5 13.492 0 26.261 3.096 37.635 8.615l-0.514-0.225c13.269 6.443 31.104 23.68 38.059 36.779 10.112 18.944 9.685 2.432 9.685 359.723l0.043 327.68 359.68-359.467c334.72-334.549 360.448-359.851 370.773-364.8 10.979-5.234 23.86-8.291 37.455-8.291 13.666 0 26.611 3.089 38.174 8.607l-0.536-0.23c14.763 7.211 31.744 24.192 38.955 38.955 5.288 11.027 8.377 23.972 8.377 37.638 0 13.595-3.057 26.476-8.521 37.994l0.23-0.538c-4.949 10.325-30.251 36.053-364.8 370.773l-359.467 359.68 327.68 0.043c357.291 0 340.779-0.427 359.723 9.685 13.099 6.955 30.336 24.789 36.779 38.059 5.291 10.997 8.383 23.911 8.383 37.547s-3.092 26.549-8.612 38.078l0.229-0.531c-6.443 13.269-23.68 31.104-36.779 38.059-19.157 10.24 7.595 9.685-467.243 9.557-359.851-0.085-437.035-0.512-445.867-2.432z" />
<glyph unicode="&#xe909;" glyph-name="arrow-up-right" d="M65.28 957.397c-13.739-2.987-26.027-9.685-37.888-20.693-42.752-39.637-33.451-109.611 18.304-137.643 18.688-10.112 2.261-9.685 359.637-9.685l327.68-0.043-359.381-359.68c-278.059-278.315-360.363-361.643-363.904-368.341-5.917-11.526-9.385-25.148-9.385-39.58 0-16.113 4.323-31.216 11.873-44.213l-0.226 0.422c15.443-25.061 42.738-41.516 73.875-41.516 13.449 0 26.181 3.070 37.533 8.547l-0.517-0.225c10.325 4.949 36.053 30.251 370.773 364.8l359.68 359.467 0.085-329.387c0.128-367.488-0.768-340.651 11.904-361.685 15.406-25.049 42.666-41.5 73.769-41.5 13.492 0 26.261 3.096 37.635 8.615l-0.514-0.225c13.269 6.443 31.104 23.68 38.059 36.779 10.24 19.115 9.685-7.424 9.685 466.389s0.555 447.275-9.685 466.389c-6.101 11.435-24.448 29.781-35.883 35.883-19.157 10.24 7.595 9.685-467.243 9.557-359.851-0.085-437.035-0.512-445.867-2.432z" />
<glyph unicode="&#xe90a;" glyph-name="at-sign" horiz-adv-x="1048" d="M449.679 958.119c-90.993-8.549-174.675-42.46-240.188-97.304-91.565-76.657-175.128-222.684-199.68-349.017-14.241-73.204-12.693-136.263 5.096-206.062 7.954-31.244 15.884-52.033 33.101-87.064 55.201-112.14 154.862-205.324 265.049-247.856 118.26-45.628 275.242-44.889 402.384 1.905 25.6 9.43 67.084 29.505 89.136 43.151 44.175 27.338 53.677 38.388 53.605 62.226-0.024 9.883-0.929 14.788-3.715 20.075-7.573 14.36-21.313 24.409-36.15 26.457-15.574 2.119-21.933-0.238-48.438-17.908-74.133-49.414-160.673-74.347-258.191-74.323-106.925 0.024-191.202 26.529-258.477 81.301-18.575 15.122-52.295 48.128-67.727 66.298-45.199 53.177-76.562 121.642-86.897 189.726-3.548 23.457-3.596 71.228-0.071 96.923 10.002 72.966 41.055 151.1 89.159 224.423 65.488 99.757 138.192 150.552 241.045 168.412 82.325 14.312 187.225-0.572 268.526-38.102 48.58-22.409 96.994-59.13 133.382-101.114 62.416-72.061 102.376-144.884 115.998-211.444 8.025-39.15 8.835-104.591 1.643-130.358-4.477-16.003-17.027-42.198-24.505-51.129-10.526-12.598-15.622-14.003-54.081-14.884-35.411-0.81-75.062 1.548-85.587 5.072-8.787 2.977-11.859 6.239-15.217 16.265-2.691 8.001-3.072 24.052-3.905 163.435l-0.953 154.553-4.191 8.216c-8.906 17.408-23.933 26.672-42.937 26.505-13.217-0.143-21.718-3.358-32.339-12.312-6.454-5.43-13.907-19.98-13.931-27.219-0.024-6.073-1.548-6.025-10.907 0.31-72.728 49.081-171.794 52.534-248.451 8.668-80.61-46.104-126.214-132.763-117.831-223.875 6.096-66.369 38.555-125.428 90.755-165.197 17.456-13.288 28.863-20.075 47.723-28.362 28.338-12.93 61.465-20.468 96.351-20.468s68.013 7.537 97.839 21.072l-1.488-0.604c19.361 8.502 30.434 15.146 49.081 29.386 7.93 6.073 14.669 11.026 14.979 11.026s3.048-3.858 6.096-8.549c8.573-13.241 24.767-27.124 40.889-35.054 29.625-14.55 59.011-18.337 132.263-17.075 54.82 0.953 65.107 2.762 89.302 15.622 35.102 18.67 64.679 60.154 80.658 113.164 8.668 28.791 10.597 49.247 9.454 100.757-1.024 46.818-3.62 67.203-13.383 104.543-21.099 80.801-83.349 183.606-153.767 254.023-84.111 84.087-187.797 133.072-316.106 149.313-26.433 3.358-90.35 4.715-114.402 2.453zM558.532 588.955c27.743-5.834 48.914-17.67 70.156-39.222 29.839-30.291 41.317-60.106 39.674-103.162-1.381-36.15-12.407-62.535-37.15-88.826-28.934-30.744-60.487-44.342-102.948-44.342-42.436 0-73.99 13.598-102.924 44.342-24.743 26.291-35.769 52.676-37.15 88.826-1.643 43.056 9.811 72.871 39.674 103.162 20.718 21.028 42.27 33.268 68.87 39.103 14.503 3.191 46.937 3.263 61.797 0.119z" />
<glyph unicode="&#xe90b;" glyph-name="award" horiz-adv-x="683" d="M313.451 958.763c-55.595-4.523-112.341-23.936-158.336-54.187-85.76-56.384-140.651-145.301-153.003-247.787-1.941-16.171-1.941-60.075 0-76.245 10.091-83.84 49.131-159.893 110.187-214.677 11.179-10.005 12.693-11.797 12.224-14.421-0.299-1.643-9.259-86.208-19.947-187.883-13.525-128.896-19.179-186.688-18.667-190.848 1.6-13.163 12.16-26.944 25.344-33.088 8.725-4.053 24.064-4.331 32.341-0.555 2.944 1.344 48.64 28.416 101.547 60.16l96.192 57.707 97.323-58.389c55.808-33.472 100.096-59.328 103.829-60.587 5.035-1.707 8.363-2.069 14.72-1.6 19.565 1.358 35.421 15.694 39.081 34.396l0.044 0.27c1.451 7.040 1.067 9.771-26.752 186.581-15.531 98.709-28.416 180.48-28.672 181.739-0.32 1.728 1.664 3.84 8.384 8.896 64.043 48.256 110.827 123.392 126.507 203.285 4.949 25.237 6.251 39.168 6.251 67.136s-1.301 41.899-6.251 67.136c-25.173 128.213-124.245 232.149-251.413 263.765-25.24 6.497-54.216 10.226-84.062 10.226-9.457 0-18.827-0.374-28.095-1.109l1.224 0.078zM370.005 872.981c50.422-5.941 95.381-25.623 132.083-55.151l-0.499 0.388c14.416-12.014 27.282-24.88 38.907-38.816l0.389-0.48c24.213-30.229 42.645-68.779 50.667-105.984 3.644-16.185 5.732-34.773 5.732-53.849 0-41.846-10.049-81.346-27.865-116.216l0.671 1.447c-14.080-27.84-27.627-46.379-49.963-68.501-11.221-11.093-13.227-12.629-15.147-11.605-3.733 2.005-17.216 2.581-23.829 1.024-8.049-1.628-14.984-5.608-20.25-11.182l-0.017-0.018c-6.293-6.293-11.157-15.531-12.16-23.083l-0.725-5.461-11.52-4.459c-21.248-8.213-35.904-12.245-57.024-15.701-17.621-2.901-58.645-2.88-76.245 0-28.082 4.429-53.337 12.823-76.524 24.686l1.43-0.665-17.067 8.384-3.243 6.315c-6.255 11.497-17.374 19.67-30.52 21.792l-0.243 0.032c-5.141 0.747-6.4 1.643-16.64 11.947-20.736 20.885-34.24 39.659-47.829 66.496-44.757 88.427-33.707 194.539 28.501 273.771 9.387 11.947 28.693 31.232 40.853 40.832 37.952 29.888 85.781 49.6 132.16 54.443 7.748 0.697 16.76 1.095 25.864 1.095 10.583 0 21.040-0.537 31.346-1.586l-1.295 0.107zM218.965 300.181c24.875-9.728 55.616-17.28 84.245-20.736 16-1.92 60.117-1.963 75.669-0.043 26.903 3.259 51.248 8.882 74.541 16.782l-2.584-0.761 9.963 3.371 0.533-2.475c0.939-4.224 36.907-233.387 36.672-233.6-0.128-0.107-31.659 18.645-70.080 41.685-40.683 24.405-71.872 42.411-74.731 43.115-7.36 1.856-19.605 1.451-26.091-0.875-3.115-1.109-37.376-21.077-76.096-44.373-38.72-23.275-70.656-42.069-70.976-41.771-0.32 0.32 5.141 54.997 12.139 121.515 6.976 66.496 12.672 121.301 12.651 121.771-0.043 1.557 2.603 0.896 14.144-3.605z" />
<glyph unicode="&#xe90c;" glyph-name="bar-chart" horiz-adv-x="796" d="M728.576 958.663c-18.916-3.214-37.148-19.513-43.378-38.827-2.105-6.485-2.247-38.343-2.247-470.898 0-504.206-0.512-469.248 7.168-483.129 4.608-8.363 15.844-19.001 24.462-23.211 9.756-4.779 23.58-6.77 34.133-4.892 23.408 4.060 41.711 21.952 46.331 44.805l0.062 0.365c1.849 9.899 1.849 920.974 0 930.731-4.574 23.056-22.629 40.872-45.449 45.032l-0.347 0.052c-3.096 0.689-6.653 1.084-10.302 1.084-3.696 0-7.298-0.405-10.763-1.174l0.329 0.061zM387.3 617.557c-11.356-2.282-21.163-7.815-28.687-15.574l-0.013-0.014c-8.597-8.2-14.481-19.177-16.209-31.488l-0.033-0.285c-0.768-5.575-1.109-121.202-0.91-299.122l0.37-290.048 2.987-7.282c6.229-15.161 18.802-27.762 33.166-33.28 10.78-4.153 29.724-4.153 40.505 0 14.364 5.518 26.937 18.119 33.166 33.28l2.987 7.282v593.351l-2.987 7.31c-6.172 14.962-18.916 27.847-32.626 32.996-6.647 2.215-14.299 3.492-22.25 3.492-3.338 0-6.623-0.225-9.841-0.661l0.375 0.042zM45.909 276.366c-21.646-3.84-40.334-22.756-44.572-45.056-1.82-9.557-1.82-238.763 0-248.348 4.623-23.185 22.834-41.080 45.821-45.176l0.344-0.051c28.018-4.921 56.007 12.857 64.085 40.704 2.844 9.813 2.844 247.58 0 257.451-4.892 16.896-18.404 31.801-34.361 37.888-7.765 2.93-22.528 4.153-31.317 2.588z" />
<glyph unicode="&#xe90d;" glyph-name="bar-chart-2" horiz-adv-x="796" d="M387.3 958.692c-11.355-2.27-21.162-7.794-28.688-15.546l-0.013-0.013c-9.301-9.301-14.564-19.627-16.242-31.772-0.768-5.632-1.109-185.287-0.91-469.703l0.37-460.629 2.987-7.282c6.229-15.161 18.802-27.762 33.166-33.28 10.78-4.153 29.724-4.153 40.505 0 14.364 5.518 26.937 18.119 33.166 33.28l2.987 7.282v934.514l-2.987 7.282c-6.172 14.99-18.916 27.876-32.626 32.996-6.634 2.22-14.272 3.501-22.21 3.501-3.352 0-6.65-0.228-9.881-0.671l0.375 0.042zM728.576 617.5c-18.916-3.186-37.148-19.484-43.378-38.798-2.076-6.457-2.247-28.132-2.247-300.316 0-318.464-0.455-298.837 7.168-312.576 1.82-3.3 6.457-9.074 10.268-12.828 31.858-31.317 86.357-14.052 94.72 29.98 1.849 9.728 1.849 579.783 0 589.483-4.566 23.060-22.625 40.879-45.449 45.032l-0.346 0.052c-3.097 0.703-6.653 1.106-10.303 1.106-3.697 0-7.298-0.413-10.758-1.196l0.325 0.062zM48.924 390.428c-22.841-2.532-43.833-22.699-47.616-45.739-1.792-10.923-1.764-352.284 0.028-361.728 5.153-26.338 28.047-45.939 55.52-45.939 2.963 0 5.872 0.228 8.711 0.667l-0.317-0.040c21.39 3.186 37.945 17.294 46.165 39.396 1.707 4.58 2.020 29.241 2.418 179.2 0.228 101.746-0.085 178.148-0.825 184.149-3.868 32.313-31.204 53.646-64.085 50.034z" />
<glyph unicode="&#xe90e;" glyph-name="battery-charging" horiz-adv-x="1755" d="M178.469 957.074c-88.101-11.922-146.871-62.171-170.569-145.883-6.29-22.199-6.363-24.283-7.241-345.637-0.622-228.023 0.073-329.033 2.377-342.747 5.413-32.402 16.603-51.639 50.286-86.418 16.53-17.042 39.936-39.497 51.968-49.847 26.222-22.491 67.109-43.63 92.197-47.689 9.655-1.536 53.175-2.816 96.731-2.853 93.44 0 101.815 1.499 122.478 22.162 13.349 13.385 22.162 33.609 22.162 50.981s-8.814 37.595-22.162 50.981c-20.553 20.553-29.294 22.162-119.845 22.162h-76.544l-11.41 8.375c-13.576 10.951-25.632 21.558-37.227 32.645l0.217-0.206-25.6 24.064v305.335c0 216.393 0.951 309.833 3.328 320.805 4.425 20.699 16.384 32.658 37.083 37.083 10.13 2.194 57.71 3.328 137.655 3.328 141.056 0 143.653 0.366 165.486 22.162 13.349 13.385 22.162 33.609 22.162 50.981s-8.814 37.595-22.162 50.981c-21.979 21.979-23.918 22.235-169.289 21.797-69.303-0.219-133.23-1.39-142.080-2.56zM782.409 955.867c-8.244-2.827-15.393-6.478-21.909-10.982l0.295 0.193c-11.374-8.302-311.333-456.009-317.806-474.368-2.365-6.797-3.732-14.631-3.732-22.785 0-19.632 7.921-37.415 20.741-50.326l-0.004 0.004c22.016-22.016 14.299-21.102 193.17-22.747l160.183-1.463-109.97-164.974c-60.489-90.697-111.835-170.203-114.103-176.64-11.557-32.731 4.791-71.899 37.010-88.539 12.763-6.619 37.559-8.741 51.31-4.389 27.575 8.704 25.307 5.705 185.966 246.565 93.989 140.91 154.149 233.874 156.562 241.81 4.974 16.603 4.901 25.088-0.512 43.301-3.441 10.621-9.055 19.715-16.357 27.146l0.010-0.010c-22.162 22.821-14.007 21.833-193.573 23.479l-160.183 1.463 109.97 164.974c60.489 90.697 111.835 170.203 114.103 176.64 9.070 25.637 1.938 54.491-18.249 74.13-20.224 19.639-46.226 25.893-72.923 17.518zM1073.189 955.392c-8.814-2.743-18.395-8.96-26.99-17.518-29.257-29.294-29.184-72.85 0.219-102.217 20.443-20.48 28.782-21.943 124.123-21.943h81.152l24.064-25.6c13.239-14.080 27.831-30.72 32.439-37.010l8.375-11.41v-569.088l-13.166-7.717c-24.728-15.018-45.248-34.488-61.006-57.478l-0.434-0.67-14.629-22.126-130.194-0.878c-127.013-0.878-130.487-1.061-141.897-7.241-26.222-14.19-39.497-36.133-39.497-65.353s13.275-51.163 39.497-65.353c11.447-6.181 14.629-6.363 150.674-7.205 91.867-0.585 145.298 0.219 157.659 2.341 36.754 6.363 60.416 24.357 88.064 66.962 14.007 21.577 18.981 26.514 40.923 40.923 42.606 28.014 60.562 51.163 67.109 86.601 4.133 22.272 4.425 603.648 0.329 629.102-4.059 25.088-25.198 65.975-47.689 92.197-29.111 33.902-78.007 79.543-94.939 88.613-26.88 14.409-45.934 16.603-142.702 16.421-67.767-0.11-90.88-1.097-101.486-4.352zM1658.331 589.678c-19.054-5.888-38.912-26.222-44.727-45.824-6.656-22.418-6.473-173.751 0.219-193.426 9.070-26.551 40.192-48.713 68.462-48.713 17.371 0 37.595 8.814 50.981 22.162 20.699 20.736 22.162 28.855 22.162 124.123s-1.463 103.387-22.162 124.123c-20.443 20.407-46.080 26.405-74.935 17.554z" />
<glyph unicode="&#xe90f;" glyph-name="battery" horiz-adv-x="1755" d="M183.333 956.928c-82.249-13.787-152.21-76.215-175.104-156.233l-6.766-23.552v-658.286l6.729-23.515c20.443-71.278 79.872-130.706 151.15-151.15l23.515-6.729h1097.143l23.515 6.729c71.278 20.443 130.706 79.872 151.15 151.15l6.729 23.515v658.286l-6.766 23.552c-23.186 81.079-92.965 142.665-177.042 156.343-21.943 3.547-1073.006 3.474-1094.254-0.11zM1267.566 809.545c16.201-5.778 30.281-17.664 39.424-33.243l8.119-13.787v-629.029l-8.119-13.787c-9.143-15.579-23.223-27.465-39.424-33.243-16.274-5.815-1056-5.815-1072.274 0-16.862 6.344-30.512 17.995-39.23 32.885l-0.194 0.358-8.119 13.787v629.029l8.119 13.787c9.143 15.579 23.223 27.465 39.424 33.243 16.274 5.815 1056 5.815 1072.274 0zM1658.331 589.678c-19.054-5.888-38.912-26.222-44.727-45.824-6.656-22.418-6.473-173.751 0.219-193.426 9.070-26.551 40.192-48.713 68.462-48.713 17.371 0 37.595 8.814 50.981 22.162 20.699 20.736 22.162 28.855 22.162 124.123s-1.463 103.387-22.162 124.123c-20.443 20.407-46.080 26.405-74.935 17.554z" />
<glyph unicode="&#xe910;" glyph-name="bell-off" d="M28.693 957.312c-11.115-3.435-22.699-15.296-26.091-26.731-3.285-11.051-3.264-15.488 0.107-27.008 2.624-8.96 6.336-12.907 104.768-111.68l102.059-102.4 1.067-19.627c3.733-69.269 2.944-106.069-3.392-156.16-8.341-66.112-24.192-121.856-47.787-168.107-16.64-32.661-26.432-46.464-48.768-68.8-18.027-18.027-20.459-21.184-22.933-29.696-4.672-16.064-0.875-30.912 10.987-42.752 12.48-12.48-14.763-11.456 313.429-11.947l295.253-0.448 125.44-125.269c121.621-121.429 125.739-125.355 134.741-127.979 11.52-3.371 15.957-3.392 27.008-0.107 11.883 3.52 23.296 14.933 26.816 26.816 3.285 11.029 3.264 15.467-0.085 27.008-2.645 9.131-10.667 17.259-479.147 485.739s-476.608 476.501-485.739 479.147c-11.157 3.243-17.173 3.243-27.733 0zM466.112 935.168c-28.928-6.272-53.504-18.176-95.168-46.080-36.096-24.192-42.304-29.397-46.848-39.168-3.819-8.235-4.288-25.771-0.896-33.877 7.936-18.987 30.592-30.4 49.984-25.152 3.947 1.045 21.397 11.499 39.253 23.509 50.24 33.749 70.379 41.728 96.085 38.080 17.707-2.496 35.029-8.747 62.357-22.485 65.344-32.832 98.368-55.381 113.643-77.568 12.864-18.709 28.203-57.429 35.861-90.624 2.901-12.501 3.712-24.555 4.992-73.003 2.091-79.168 6.699-123.883 18.091-174.933 5.291-23.659 7.083-28.224 14.336-36.501 8.576-9.749 17.429-13.611 31.531-13.696 13.952-0.085 22.741 3.691 31.317 13.461 12.011 13.696 13.013 26.496 4.821 61.483-9.472 40.512-12.928 75.264-14.805 149.333-1.579 61.888-2.453 71.189-9.664 101.547-15.445 65.045-42.859 116.139-78.976 147.221-32.363 27.861-119.36 76.757-161.387 90.709-30.229 10.027-69.269 13.227-94.528 7.744zM421.269 277.76c-109.973-0.256-200.277-0.128-200.661 0.256s1.216 3.712 3.52 7.381c11.627 18.411 28.032 55.531 39.808 90.069 16.811 49.237 29.461 120.427 32.149 180.907 0.555 12.203 1.429 27.093 1.963 33.109l0.939 10.923 322.24-322.219-199.957-0.427zM412.437 103.808c-16.299-5.632-28.437-22.997-28.437-40.661 0-9.536 5.227-21.184 13.675-30.421 9.28-10.155 19.456-16.213 39.723-23.659l22.549-8.256c7.232-2.667 13.611-3.115 41.813-3.029 22.485 0.085 35.221 0.832 39.253 2.304 45.653 16.64 57.835 23.147 66.923 35.627 7.488 10.304 9.877 17.301 9.877 28.821 0 35.819-43.413 55.083-69.973 31.061-6.763-6.123-24.299-10.709-44.779-11.712-16.384-0.811-19.648-0.469-30.635 3.264-6.741 2.304-13.867 5.632-15.787 7.424-11.136 10.283-29.845 14.187-44.203 9.237z" />
<glyph unicode="&#xe911;" glyph-name="bell" horiz-adv-x="953" d="M438.463 958.333c-26.148-1.905-55.344-6.763-80.467-13.36-105.281-27.6-170.294-91.422-199.108-195.441-10.716-38.698-14.003-66.346-16.027-134.835-0.833-28.815-2.262-60.607-3.143-70.656-9.359-105.734-35.34-191.917-76.824-254.714-13.312-20.147-32.077-42.055-42.865-50.033-11.989-8.733-19.691-22.724-19.691-38.513 0-18.278 10.322-34.146 25.456-42.091l0.261-0.125 8.073-4.263h884.307l6.692 3.572c20.575 11.002 31.030 32.72 25.957 53.915-2.572 10.74-8.883 19.67-20.909 29.577-36.697 30.291-74.657 98.828-94.399 170.484-16.384 59.416-23.576 114.259-26.076 198.823-1.095 37.078-2.191 52.605-4.668 66.036-14.527 78.943-60.154 159.911-119.141 211.492-53.939 47.128-115.164 69.013-198.489 70.918-4.261 0.103-9.281 0.162-14.314 0.162-12.179 0-24.278-0.344-36.287-1.023l1.664 0.075zM528.67 860.767c50.152-8.954 89.445-32.577 122.666-73.752 27.553-34.173 50.581-81.206 59.106-120.713 1.691-7.859 3.048-26.481 4.025-54.772 3.786-110.354 14.598-182.224 38.102-253.238 11.359-34.316 31.911-80.539 45.080-101.4 2.239-3.572 4.096-6.858 4.096-7.311s-146.456-0.833-325.465-0.833c-179.009 0-325.465 0.381-325.465 0.833s1.857 3.739 4.096 7.311c12.002 19.004 31.292 61.511 42.055 92.684 26.648 77.062 41.079 174.104 41.151 276.456 0.048 53.558 10.073 103.353 28.053 139.312 8.668 17.337 13.907 25.052 25.505 37.578 31.482 34.006 75.3 51.629 151.266 60.845 13.36 1.619 71.18-0.405 85.73-3.001zM366.544 56.141c-21.29-7.954-32.268-23.409-32.316-45.532-0.024-9.311 0.762-13.55 3.667-19.408 8.835-17.956 27.005-31.792 53.439-40.722 7.859-2.643 18.646-6.62 23.981-8.811 12.121-5.025 27.886-6.525 44.246-4.215 9.597 1.357 14.717 1.334 21.099-0.095 9.93-2.215 25.552 0.024 35.507 5.096 3.382 1.715 12.74 5.311 20.837 7.978 26.672 8.835 44.937 22.671 53.843 40.769 2.881 5.834 3.715 10.145 3.715 19.408 0 19.408-8.859 33.792-26.648 43.246-5.43 2.881-9.264 3.548-20.194 3.548-11.502 0-14.669-0.619-21.433-4.167-4.358-2.286-9.264-5.644-10.907-7.454-6.668-7.406-34.149-12.788-67.679-13.264-5.977-0.095-30.41 9.526-34.935 13.741-10.788 10.073-33.030 14.836-46.223 9.883z" />
<glyph unicode="&#xe912;" glyph-name="bluetooth" horiz-adv-x="555" d="M268.096 959.040c-14.912-3.115-29.163-17.301-32.256-32.128-0.747-3.499-1.024-58.176-1.024-190.421v-185.536l-83.435 83.307c-76.821 76.693-83.925 83.541-89.536 86.251-17.024 8.213-36.075 5.141-49.195-7.979-13.035-13.035-16.149-32.256-7.979-49.173 2.731-5.653 10.688-13.845 107.52-110.805l104.555-104.704-104.555-104.683c-96.832-96.96-104.789-105.152-107.52-110.827-8.128-16.811-5.035-36.139 7.829-49.003 13.589-13.589 32.491-16.597 49.899-7.979 4.821 2.389 16.341 13.525 88.981 86.059l83.435 83.349v-185.856c0-203.371-0.341-190.891 5.312-201.28 3.605-6.613 11.435-13.995 18.56-17.515 5.995-2.965 6.379-3.008 18.645-3.008 21.205 0 5.717-13.483 147.563 128.363 113.557 113.557 122.368 122.581 125.099 128.277 2.806 5.635 4.448 12.274 4.448 19.296s-1.642 13.661-4.564 19.553l0.115-0.257c-2.731 5.675-10.688 13.867-107.52 110.827l-104.555 104.683 104.555 104.704c96.789 96.917 104.789 105.152 107.52 110.805 2.806 5.638 4.449 12.281 4.449 19.307s-1.642 13.668-4.564 19.564l0.115-0.257c-2.752 5.675-11.541 14.699-123.712 126.869-66.411 66.411-122.773 122.091-125.227 123.733-8.896 5.973-22.571 8.64-32.96 6.464zM385.728 616.811l-65.877-65.877v263.467l131.733-131.733-65.856-65.856zM385.728 147.179l-65.877-65.856v263.467l131.733-131.733-65.856-65.877z" />
<glyph unicode="&#xe913;" glyph-name="bold" horiz-adv-x="853" d="M44.089 958.009c-16.953-3.755-31.004-15.275-38.827-31.801l-4.551-9.586v-937.244l4.551-9.586c5.86-12.402 16.128-22.67 28.53-28.53l9.586-4.551h273.778c261.575 0 274.318 0.114 285.81 2.645 33.024 7.253 62.236 21.817 93.212 46.45 14.763 11.748 95.602 92.587 107.349 107.349 31.232 39.282 46.82 76.516 49.294 117.902 4.124 68.352-35.044 152.917-101.86 219.989-21.305 21.39-33.166 30.35-65.451 49.465-1.678 0.996 3.669 7.168 24.889 28.814 14.876 15.189 31.118 32.711 36.153 38.94 31.090 38.684 46.905 76.459 49.38 117.902 4.124 68.352-35.044 152.917-101.86 219.989-45.568 45.739-90.624 66.987-153.628 72.42-25.401 2.19-486.343 1.678-496.356-0.569zM554.468 842.155c26.396-7.367 46.734-21.191 70.172-47.701 42.069-47.588 64.683-101.632 56.064-134.002-5.945-22.272-17.806-37.575-68.352-88.036-38.457-38.428-54.784-52.423-69.461-59.62-16.924-8.277-5.547-7.879-226.076-7.879l-203.036-0.028v341.419l428.8-0.825 11.89-3.328zM611.356 387.044c26.425-7.396 46.734-21.191 70.172-47.701 42.069-47.588 64.683-101.632 56.064-134.002-5.945-22.272-17.806-37.575-68.352-88.036-38.457-38.428-54.784-52.423-69.461-59.62-16.981-8.306-2.958-7.879-254.521-7.879l-231.481-0.028v341.39l485.689-0.796 11.89-3.328z" />
<glyph unicode="&#xe914;" glyph-name="book-open" horiz-adv-x="1126" d="M34.125 956.467c-11.264-3.942-22.989-14.234-29.133-25.574l-4.045-7.501v-398.003c0-387.302 0.077-398.157 3.558-404.557 6.477-11.981 12.262-18.099 22.246-23.629l9.856-5.478 422.4-1.869 7.808-4.173c10.573-5.658 18.099-15.181 27.904-35.251 9.040-17.76 15.261-38.461 17.451-60.35l0.059-0.732c1.818-18.15 5.658-27.725 14.771-36.813 10.726-10.726 20.224-14.541 36.198-14.541s25.472 3.814 36.198 14.541c12.083 12.058 13.286 16.922 14.669 58.522 1.715 51.61 5.325 67.584 16.154 71.91 16.205 6.477 20.557 6.605 240.87 7.706l218.701 1.050 7.757 4.173c9.882 5.274 18.483 13.875 23.757 23.731l4.147 7.782 0.512 393.216c0.538 446.362 1.971 406.502-15.232 423.68-16.563 16.538-6.067 15.693-193.664 15.693-101.53 0-171.392-0.768-184.115-1.997-23.962-2.33-57.984-9.523-76.749-16.23-39.040-13.926-78.95-43.136-97.664-71.475-2.918-4.429-5.965-7.808-6.784-7.501-0.819 0.282-7.68 7.296-15.206 15.59-40.243 44.237-75.29 65.946-123.546 76.493-17.203 3.763-23.859 3.917-193.357 4.506-167.398 0.563-176 0.435-185.523-2.918zM395.955 854.221c23.603-6.272 42.035-19.021 65.434-45.312 19.236-21.527 34.771-46.85 45.3-74.636l0.549-1.652 4.326-11.981 0.512-271.821 0.512-271.795-5.376 2.765c-5.479 2.44-12.2 4.849-19.115 6.798l-1.109 0.267-14.848 4.275-369.818 1.971-0.486 330.419c-0.282 181.734-0.051 331.52 0.461 332.877 0.768 2.022 26.624 2.33 141.261 1.741 124.544-0.666 141.722-1.101 152.397-3.917zM1024.077 525.389v-332.288l-192.41-1.101c-185.318-1.050-198.374-1.459-214.554-6.579-3.174-0.998-3.302 11.136-2.739 275.533 0.589 272.614 0.64 276.813 4.506 293.504 4.736 20.403 12.237 39.834 20.352 52.608 17.178 27.059 56.346 45.542 105.139 49.613 9.293 0.794 76.032 1.331 148.301 1.203l131.405-0.205v-332.288z" />
<glyph unicode="&#xe915;" glyph-name="book1" horiz-adv-x="838" d="M128.768 958.557c-75.683-6.26-114.525-40.378-125.533-110.266-2.397-15.22-2.537-36.189-2.537-397.265 0-419.049-0.559-391.052 8.145-412.556 10.24-25.367 32.14-49.617 63.069-69.841 16.826-10.985 42.985-23.319 58.647-27.625l13.964-3.84h657.687l7.889 3.7c10.031 4.701 18.618 13.289 23.319 23.319l3.7 7.889v952.32l-3.7 7.889c-4.978 10.252-13.068 18.341-23.026 23.19l-0.294 0.129-7.889 3.7-330.24 0.163c-181.62 0.070-336.081-0.326-343.203-0.908zM744.262 564.177v-302.289l-312.436-0.489c-281.763-0.442-313.46-0.721-322.909-2.746-3.395-0.849-7.777-1.672-12.23-2.274l-0.687-0.076c-2.327-0.070-2.444 14.406-2.397 285.137 0.047 303.244 0 300.172 6.516 311.366 1.858 2.874 4.24 5.248 7.029 7.043l0.092 0.056c10.892 6.353 7.005 6.284 330.868 6.423l306.153 0.116v-302.266zM744.262 99.84v-69.841l-591.36 0.721-12.241 5.888c-21.062 10.124-39.331 24.32-44.218 34.397-2.607 5.399-2.886 8.471-2.839 31.721 0.070 39.959 3.631 54.691 14.406 59.788 5.748 2.723 20.271 5.399 33.722 6.214 3.84 0.233 140.986 0.535 304.756 0.675l297.775 0.256v-69.818z" />
<glyph unicode="&#xe916;" glyph-name="bookmark" horiz-adv-x="819" d="M133.12 959.053c-24.32-2.202-53.914-11.981-72.115-23.859-30.234-19.712-48.026-47.36-57.242-88.909l-3.072-13.952v-857.472l4.352-8.858c12.621-25.626 41.856-36.787 66.509-25.446 3.84 1.766 81.459 56.422 172.493 121.472l165.555 118.272 165.555-118.272c91.034-65.050 168.909-119.859 173.056-121.779 6.374-2.995 9.37-3.533 19.789-3.482 10.445 0.026 13.517 0.589 20.48 3.789 11.41 5.662 20.454 14.648 26.038 25.682l0.15 0.328 3.84 8.346v847.872l-4.454 12.774c-8.602 24.653-21.402 42.88-52.198 74.419-36.045 36.89-48.512 44.621-78.259 48.589-9.907 1.331-536.090 1.792-550.477 0.486zM688.973 838.144c10.419-10.701 20.941-22.477 23.398-26.189l4.429-6.707v-358.835c0-197.376-0.333-358.861-0.768-358.861-0.41 0-63.232 44.646-139.597 99.2s-141.926 100.787-145.664 102.733c-6.093 3.149-8.397 3.558-21.171 3.558s-15.078-0.41-21.171-3.558c-3.738-1.946-69.299-48.179-145.664-102.733s-139.187-99.2-139.597-99.2c-0.435 0-0.768 164.198-0.742 364.877 0.026 394.624-0.333 375.731 7.117 389.197 2.137 3.718 5.14 6.721 8.744 8.797l0.114 0.061c12.928 7.117 3.2 6.886 287.258 7.014l264.371 0.102 18.944-19.456z" />
<glyph unicode="&#xe917;" glyph-name="box" horiz-adv-x="931" d="M416.14 957.533c-7.75-1.932-43.613-21.83-175.313-97.233-127.325-72.913-168.797-95.953-179.549-99.724-29.091-10.217-43.404-21.062-52.783-40.052-7.564-15.29-9.542-28.439-7.191-47.43 2.63-21.318 2.607-385.699-0.047-407.040-3.351-27.020 2.281-45.777 20.573-68.515 11.869-14.755 32.116-33.745 44.893-42.1 16.943-11.101 333.871-191.884 341.318-194.723 3.84-1.443 10.124-3.165 13.964-3.793 5.213-0.861 8.541-2.723 13.196-7.401 9.007-9.076 17.78-12.544 31.814-12.66 9.705-0.070 13.103 0.628 20.433 4.236 4.864 2.397 10.868 6.679 13.382 9.542 2.767 3.399 6.747 5.719 11.271 6.298l0.086 0.009c3.747 0.628 10.031 2.351 13.964 3.84 13.242 4.98 338.874 192.093 346.857 199.284 9.705 8.774 16.943 20.992 23.389 39.494 4.053 11.060 8.853 20.587 14.589 29.453l-0.346-0.571c10.566 16.291 16.151 28.905 18.641 41.914 1.303 6.772 1.652 62.278 1.28 204.8-0.442 176.081-0.745 196.189-3.025 202.612-4.119 11.59-9.635 21.504-25.204 45.405-11.427 17.501-16.733 24.134-23.692 29.603-11.613 9.1-343.831 199.005-355.468 203.171-7.377 2.653-11.799 3.095-26.694 2.7-32.442-0.884-39.401-0.838-55.063 0.233-11.753 0.791-17.873 0.465-25.274-1.35zM460.8 864.349c8.96-0.442 20.457-0.14 25.53 0.675l9.263 1.513 141.615-80.873c77.894-44.497 141.452-81.385 141.242-81.967-0.209-0.605-66.327-43.753-146.921-95.907l-146.572-94.836-9.076 1.583c-2.557 0.532-5.496 0.836-8.506 0.836-3.052 0-6.030-0.313-8.905-0.908l0.283 0.049c-4.422-0.908-8.774-1.699-9.658-1.745-2.537-0.186-303.267 184.087-302.801 185.553 0.233 0.698 66.025 38.889 146.223 84.829 99.863 57.228 146.758 83.316 148.899 82.804 1.699-0.419 10.426-1.14 19.386-1.606zM837.818 458.007v-171.497l-7.54-11.194c-9.751-14.476-12.218-19.316-17.967-35.049l-4.748-13.033-145.059-82.944c-79.802-45.615-145.943-83.293-147.014-83.712-1.536-0.628-1.932 35.933-1.932 179.735l0.023 180.527 160.954 104.285c88.529 57.344 161.466 104.285 162.118 104.332 0.628 0.047 1.164-77.103 1.164-171.45zM259.142 518.935l160.535-98.164 0.396-180.317c0.233-99.188 0.14-180.34-0.186-180.34s-68.585 38.819-151.668 86.249c-148.387 84.736-151.296 86.481-162.979 98.141l-11.892 11.892 1.327 7.75c0.745 4.259 1.373 85.434 1.42 180.364 0.070 94.929 0.652 172.614 1.303 172.614s73.449-44.195 161.745-98.188z" />
<glyph unicode="&#xe918;" glyph-name="briefcase" horiz-adv-x="1126" d="M432.666 958.080c-61.286-8.218-103.552-43.802-119.27-100.403-3.584-12.928-4.301-21.069-5.043-58.547l-0.87-43.52-180.762-1.331-16.896-5.171c-55.142-16.947-97.229-63.718-107.085-119.014-4.019-22.426-3.968-544.896 0.026-567.859 10.24-58.701 58.701-108.979 117.376-121.779 10.342-2.253 78.131-2.662 443.059-2.662s432.717 0.41 443.059 2.662c58.573 12.774 107.136 63.155 117.376 121.779 4.147 23.808 4.147 543.949 0 567.757-9.626 55.091-51.968 102.195-107.059 119.117l-16.896 5.171-181.171 1.331v31.386c0 35.379-1.818 45.414-11.955 65.536-9.83 19.43-22.016 34.816-48.87 61.568-27.315 27.238-37.427 34.637-55.475 40.755-12.16 4.122-13.645 4.173-135.245 4.454-67.635 0.154-128.077-0.384-134.298-1.229zM687.411 840.294c9.779-10.061 20.48-22.016 23.757-26.547l5.965-8.243v-50.125h-307.866v31.514c0 53.914 6.195 65.818 36.301 69.734 6.349 0.845 59.366 1.638 117.811 1.766l106.266 0.23 17.766-18.33zM306.944 346.112v-306.944h-165.197l-8.883 4.378c-10.573 5.197-24.832 20.429-28.134 30.029-3.251 9.549-4.557 516.787-1.357 535.936 2.33 14.003 8.32 23.629 21.018 33.869 11.904 9.549 20.275 10.368 105.574 10.010l76.979-0.333v-306.944zM716.211 346.112v-306.944h-306.022l-0.461 305.075c-0.282 167.782-0.102 306.125 0.41 307.405 0.691 1.894 32.41 2.278 153.472 1.894l152.602-0.486v-306.944zM990.157 650.419c10.47-3.43 28.237-21.658 31.437-32.256 3.584-11.878 3.686-531.84 0.128-543.616-3.098-10.214-16.998-25.498-28.186-31.002l-8.883-4.378h-165.197l-0.486 305.075c-0.256 167.782-0.051 306.176 0.461 307.507 1.331 3.482 159.795 2.253 170.726-1.331z" />
<glyph unicode="&#xe919;" glyph-name="calendar" horiz-adv-x="931" d="M266.403 957.882c-15.244-4.282-28.742-18.479-32-33.629-0.908-4.305-1.676-18.921-1.676-32.489v-24.623l-57.018-0.628c-52.41-0.582-58.089-0.908-70.214-4.049-48.663-12.544-88.111-51.945-101.213-101.097l-3.514-13.149v-693.527l3.514-13.149c13.625-49.465 51.795-87.635 100.252-101.022l1.008-0.237 13.149-3.514h693.527l13.149 3.514c49.465 13.625 87.635 51.795 101.022 100.252l0.237 1.008 3.514 13.149v693.527l-3.514 13.149c-13.103 49.152-52.55 88.553-101.213 101.097-12.125 3.142-17.804 3.468-70.074 4.049l-56.879 0.628-0.559 28.975c-0.628 33.14-2.048 38.284-13.684 49.92-9.449 9.449-18.432 13.033-32.582 13.033s-23.133-3.584-32.582-13.033c-11.636-11.636-13.056-16.756-13.684-50.036l-0.559-29.091h-278.714l-0.559 29.091c-0.489 25.647-0.954 29.952-3.863 36.305-4.166 9.1-14.359 19.363-23.017 23.203-8.937 3.956-22.993 4.98-32.256 2.374zM232.983 744.727c0.582-33.257 1.978-38.307 13.708-50.036 9.449-9.449 18.432-13.033 32.582-13.033s23.133 3.584 32.582 13.033c11.636 11.636 13.056 16.756 13.684 50.036l0.559 29.091h278.761l0.489-29.091c0.582-33.257 1.978-38.307 13.708-50.036 9.449-9.449 18.432-13.033 32.582-13.033s23.133 3.584 32.582 13.033c11.636 11.636 13.056 16.756 13.684 50.036l0.559 29.091h50.223c47.127 0 50.758-0.209 58.88-3.235 11.543-4.329 22.691-15.476 27.020-27.020 3.119-8.332 3.235-11.427 3.235-82.292v-73.635h-744.727v73.635c0 70.865 0.116 73.961 3.235 82.292 4.212 11.264 15.476 22.668 26.577 26.95 7.61 2.909 11.776 3.142 58.88 3.235l50.711 0.070 0.489-29.091zM837.818 281.274c0-212.084-0.023-213.318-3.212-221.882-4.422-11.776-15.174-22.621-26.764-26.973l-8.937-3.328h-666.903l-8.937 3.328c-12.247 5.089-21.766 14.676-26.647 26.648l-0.117 0.325c-3.188 8.564-3.212 9.798-3.212 221.882v213.271h744.727v-213.271z" />
<glyph unicode="&#xe91a;" glyph-name="camera-off" d="M28.693 957.312c-11.115-3.435-22.699-15.296-26.091-26.731-3.285-11.051-3.264-15.488 0.128-27.008 2.603-8.875 5.952-12.523 76.053-82.837l73.344-73.557-25.301-0.939c-17.813-0.64-29.504-2.005-39.595-4.608-42.624-10.987-70.293-38.379-82.645-81.771l-3.712-13.035-0.491-252.587c-0.363-179.392 0.043-255.872 1.387-263.936 3.157-18.901 9.685-30.123 29.333-50.411 9.643-9.941 23.296-23.040 30.315-29.077 15.296-13.12 39.147-25.451 53.781-27.819 6.357-1.024 152.747-1.643 386.453-1.664h376.213l40.235-39.915c37.333-37.056 40.917-40.128 49.493-42.667 11.477-3.413 15.915-3.435 26.987-0.149 11.883 3.52 23.296 14.933 26.816 26.816 3.285 11.029 3.264 15.467-0.085 27.008-2.645 9.131-10.667 17.259-479.147 485.739s-476.608 476.501-485.739 479.147c-11.157 3.243-17.173 3.243-27.733 0zM370.027 872c-5.077-1.579-10.752-5.269-15.595-10.112-17.28-17.28-17.301-42.496-0.021-59.755 13.163-13.184 8.939-12.8 143.957-12.8h118.848l38.507-57.664c40.917-61.291 44.16-65.024 59.371-68.501 4.715-1.067 42.091-1.771 96.704-1.792l89.024-0.043 14.037-14.933c7.723-8.213 16.235-17.92 18.923-21.589l4.885-6.656v-194.859c0-219.435-0.896-204.544 13.077-218.496 7.659-7.659 19.541-12.8 29.589-12.8 17.152 0 35.285 13.312 40.064 29.419 2.261 7.616 2.603 34.176 2.603 204.288-0.021 117.483-0.683 199.616-1.664 205.76-2.368 14.635-14.699 38.485-27.819 53.781-16.981 19.776-45.504 46.4-55.381 51.691-16.768 8.981-24.64 9.664-111.509 9.707l-79.488 0.021-39.125 58.347c-37.632 56.064-39.509 58.539-48.533 63.573l-9.387 5.227-136.533 0.341c-115.371 0.277-137.771-0.064-144.533-2.155zM290.069 609.344l51.947-51.968-5.248-7.339c-10.624-14.827-38.891-62.379-45.931-77.291-9.493-20.032-12.907-33.877-12.843-51.925 0.064-19.307 2.859-29.035 17.216-59.755 6.592-14.144 11.989-26.283 11.989-27.008 0-2.496 15.872-28.565 23.637-38.805 10.325-13.632 31.104-35.093 43.84-45.248 13.099-10.453 34.752-23.787 46.869-28.843 5.163-2.155 19.221-8.512 31.232-14.101 26.325-12.245 41.088-15.787 60.075-14.421 15.275 1.109 23.829 3.413 42.091 11.413 13.419 5.867 58.283 32.256 76.523 44.992l11.093 7.744 149.355-149.269-662.891-0.853-6.059 4.075c-3.328 2.261-13.163 10.773-21.845 18.923l-15.787 14.827v242.133c0 170.24 0.555 244.715 1.877 250.901 1.088 5.056 3.84 10.965 6.464 13.909 7.893 8.853 14.784 9.664 82.965 9.792l61.461 0.107 51.968-51.989zM580.267 317.995c0-1.664-46.571-29.973-58.88-35.797-5.632-2.688-12.053-4.864-14.251-4.864-3.541 0-21.717 7.829-56.299 24.235-18.709 8.896-48.128 36.352-59.413 55.467-3.989 6.763-16.448 33.792-25.579 55.445l-4.075 9.685 3.456 8.747c2.923 7.445 18.475 34.517 33.707 58.709l4.181 6.656 88.576-88.555c48.725-48.704 88.576-89.088 88.576-89.728z" />
<glyph unicode="&#xe91b;" glyph-name="camera" horiz-adv-x="1229" d="M449.203 958.054c-3.584-0.845-10.726-4.045-15.872-7.066-8.294-4.864-14.797-13.594-55.731-74.906l-46.336-69.402-105.728-0.819c-101.683-0.819-106.342-1.024-121.907-5.402-51.174-14.387-83.482-46.72-98.125-98.227l-4.454-15.642-0.589-303.104c-0.435-215.27 0.051-307.046 1.664-316.723 3.789-22.682 11.622-36.147 35.2-60.493 11.571-11.93 27.955-27.648 36.378-34.893 18.355-15.744 46.976-30.541 64.538-33.382 18.074-2.918 936.576-2.688 952.371 0.23 24.806 4.582 41.011 17.152 60.621 46.976 10.086 15.36 13.542 18.842 28.646 28.646 29.338 19.021 42.112 35.533 46.694 60.339 2.893 15.693 3.123 576.026 0.23 593.971-2.842 17.562-17.638 46.182-33.382 64.538-20.378 23.731-54.605 55.68-66.458 62.029-20.122 10.778-29.568 11.597-133.811 11.648l-95.386 0.026-46.95 70.016c-45.158 67.277-47.411 70.246-58.24 76.288l-11.264 6.272-162.816 0.333c-89.549 0.179-165.734-0.384-169.293-1.254zM786.867 788.403c49.101-73.549 52.992-78.029 71.245-82.202 5.658-1.28 50.509-2.125 116.045-2.15l106.829-0.051 16.845-17.92c9.267-9.856 19.482-21.504 22.707-25.907l5.862-7.987v-551.962l-9.216-5.402c-17.331-10.502-31.701-24.153-42.704-40.284l-0.304-0.472-10.24-15.539-909.722-0.128-7.987 5.862c-9.503 7.665-17.943 15.091-26.059 22.851l0.152-0.144-17.92 16.845v290.534c0 208.666 0.666 293.581 2.33 301.363 3.098 14.49 11.469 22.861 25.958 25.958 7.296 1.562 46.797 2.355 120.806 2.381 67.686 0.026 113.51 0.845 119.194 2.15 18.253 4.173 22.144 8.653 71.245 82.202l46.208 69.197h252.518l46.208-69.197zM592.896 651.622c-28.954-4.045-39.398-6.17-56.32-11.494-82.56-26.035-148.173-95.462-169.933-179.84-12.339-47.795-9.114-108.314 8.141-153.216 26.936-68.338 79.739-121.541 146.033-148.389l1.756-0.629c55.91-21.99 127.744-21.99 183.654 0 68.71 27.034 124.39 84.045 148.762 152.32 20.301 56.909 19.635 123.674-1.843 178.253-32.282 82.022-105.139 142.899-190.387 159.078-16.614 3.149-58.47 5.504-69.862 3.917zM658.432 544.205c49.408-15.36 88.090-54.272 103.757-104.397 4.096-13.184 4.762-19.43 4.634-44.032-0.128-24.96-0.819-30.694-5.35-44.365-16.333-49.074-54.64-86.826-102.941-102.069l-1.123-0.306c-22.323-6.912-63.872-6.938-86.016-0.026-50.233 15.761-89.006 54.543-104.452 103.661l-0.304 1.12c-6.912 22.221-6.912 63.795 0 86.016 17.434 56.013 64.461 98.355 120.653 108.621 16.717 3.046 55.066 0.768 71.142-4.224z" />
<glyph unicode="&#xe91c;" glyph-name="cast" horiz-adv-x="1252" d="M138.069 957.781c-68.409-8.96-115.143-49.835-132.238-115.627-3.925-15.076-4.437-24.292-5.291-94.236-0.796-66.276-0.455-79.189 2.361-88.832 11.577-39.851 64.256-53.134 93.724-23.694 15.246 15.275 14.848 12.828 16.156 96.199 1.308 83.172 2.332 90.994 13.483 102.144 13.227 13.227-18.972 12.373 491.093 13.084l466.119 0.626 21.561-21.419c11.861-11.776 24.348-25.572 27.733-30.663l6.144-9.216v-666.027l-17.209-11.719c-20.48-13.938-28.9-22.386-43.207-43.264l-10.724-15.644-173.54-1.052c-193.707-1.166-178.546 0.085-194.645-16.014-16.356-16.356-21.077-44.146-10.923-64.455 5.888-11.776 20.48-25.116 30.748-28.103 5.063-1.451 69.717-1.963 197.348-1.564l189.81 0.626 11.492 5.433c16.526 7.794 31.602 22.471 46.763 45.426 12.26 18.574 14.706 21.049 32.512 32.597 31.175 20.224 47.019 40.789 52.11 67.698 2.958 15.616 2.844 697.202-0.114 715.548-4.324 26.681-19.911 53.988-49.436 86.585-32.512 35.868-53.959 53.106-76.004 61.184l-15.218 5.547-478.72 0.284c-263.31 0.142-484.636-0.512-491.89-1.451zM45.881 503.324c-25.515-5.12-45.881-29.696-45.881-55.41 0-19.655 14.308-42.439 31.772-50.631 4.892-2.276 19.228-5.746 31.858-7.68 93.952-14.45 164.949-51.797 237.34-124.928 65.394-66.020 107.918-155.534 123.506-260.039 1.82-12.032 4.181-25.259 5.291-29.383 3.1-11.577 13.369-24.092 25.458-31.033 9.785-5.604 12.857-6.286 28.302-6.315 19.57 0 26.14 2.418 38.656 14.308 17.038 16.156 20.338 30.805 15.076 67.072-15.36 106.098-55.922 203.89-117.646 283.648-18.034 23.296-62.578 67.669-90.027 89.628-77.198 61.781-155.762 96.057-251.364 109.653-22.756 3.243-21.817 3.214-32.341 1.109zM46.82 275.996c-19.627-3.214-38.286-20.025-44.004-39.652-6.201-21.163-0.768-41.444 15.246-56.889 9.813-9.472 17.436-12.743 40.334-17.266 54.898-10.894 79.047-19.911 96.085-35.812 18.603-17.436 25.856-37.575 39.31-109.141 8.363-44.572 12.117-55.438 22.443-65.052 11.492-10.724 21.191-14.279 38.798-14.279 19.2 0 28.53 3.328 39.794 14.165 18.887 18.261 20.764 30.635 11.861 78.649-15.531 83.684-25.060 113.124-48.384 149.134-20.992 32.427-62.692 61.724-109.71 77.056-15.957 5.205-89.145 21.618-92.359 20.736-0.54-0.142-4.779-0.882-9.415-1.65zM34.276 44.629c-35.584-16.697-45.056-61.156-19.058-89.486 12.203-13.284 21.703-17.152 42.183-17.209 24.917-0.057 39.737 8.988 50.347 30.72 4.836 9.813 5.319 12.885 4.466 27.648-0.853 14.564-1.82 17.892-7.879 26.766-4.856 6.603-10.51 12.248-16.906 16.943l-0.218 0.153c-9.131 6.229-11.947 7.026-27.307 7.708-13.625 0.597-18.887-0.085-25.628-3.243z" />
<glyph unicode="&#xe91d;" glyph-name="check-circle" d="M471.226 958.115c-27.788-2.211-52.945-5.839-77.566-10.932l4.001 0.692c-94.627-19.27-184.111-69.679-262.26-147.735-67.258-67.165-104.076-133.958-121.693-220.719-15.779-77.638-17.501-155.462-4.98-224.442 30.976-170.682 156.113-315.508 327.843-379.485 123.136-45.847 226.071-51.014 325.748-16.314 99.607 34.653 203.66 116.177 272.547 213.551 37.888 53.527 63.232 106.636 76.311 159.977 8.681 35.375 11.194 57.53 12.311 108.521 1.187 55.249 0.233 60.486-13.731 74.449-6.889 6.889-11.008 9.425-19.037 11.776-3.95 1.218-8.491 1.92-13.195 1.92-16.772 0-31.461-8.915-39.588-22.265l-0.116-0.205-5.12-8.285-1.164-43.66c-1.35-49.827-3.188-67.537-10.054-96.861-9.402-40.215-26.112-76.986-53.923-118.761-21.551-32.349-38.191-52.62-66.257-80.617-78.127-77.964-167.866-123.811-251.764-128.605-49.408-2.839-94.906 4.166-155.299 23.855-72.611 23.692-124.765 54.249-175.011 102.54-99.398 95.558-139.613 213.969-121.972 359.028 11.473 94.371 39.331 153.577 102.028 216.948 66.49 67.188 143.034 110.313 223.116 125.743 22.993 4.422 38.097 6.191 66.7 7.796 66.676 3.724 132.887-6.842 186.74-29.766 34.676-14.755 68.492 5.469 68.492 40.96 0 8.913-1.001 13.521-4.468 20.596-7.773 15.872-18.409 22.132-62.324 36.678-62.953 20.876-133.004 28.881-206.313 23.622zM964.631 852.271c-4.056-1.292-7.56-2.87-10.84-4.79l0.251 0.136c-2.723-1.652-103.121-100.585-223.092-219.857l-218.112-216.855-56.32 55.203c-36.771 36.073-58.973 56.553-63.977 59.089-10.868 5.469-28.602 5.423-39.261-0.116-17.175-8.913-25.809-23.040-25.809-42.17 0-20.41-0.745-19.503 82.432-102.121 56.646-56.273 77.335-75.776 83.2-78.452 11.194-5.12 29.044-4.98 39.377 0.279 10.845 5.539 483.072 476.183 487.517 485.865 4.492 9.844 4.166 30.092-0.652 39.331-10.24 19.689-34.164 30.371-54.714 24.46z" />
<glyph unicode="&#xe91e;" glyph-name="check-square" horiz-adv-x="1075" d="M132.608 958.874c-32.614-4.762-52.506-11.11-70.298-22.502-34.714-22.195-54.707-56.576-60.493-104.038-1.434-11.955-1.869-121.395-1.459-392.013l0.538-375.424 4.147-11.648c6.374-17.894 14.822-29.235 41.421-55.706 31.718-31.514 54.477-47.565 80.614-56.883 7.475-2.662 41.19-2.97 376.474-3.456 233.446-0.333 372.403 0.102 379.622 1.203 25.549 3.942 45.056 18.662 63.565 48.026 9.6 15.206 11.341 16.922 27.699 27.571 19.635 12.8 31.821 24.346 38.758 36.762 10.547 18.842 10.138 9.472 9.626 220.339l-0.486 193.408-3.866 7.168c-23.091 42.701-86.656 33.101-95.462-14.413-1.28-6.989-1.946-67.738-1.971-183.475l-0.051-173.056-12.749-8.064c-16.561-10.666-30.243-24.347-40.59-40.382l-0.318-0.527-8.064-12.749-704.794-0.102-10.496 7.936c-9.502 7.762-18.032 15.546-26.122 23.766l-0.041 0.042-15.718 15.872 0.486 370.867 0.461 370.893 4.48 8.96c5.222 10.445 12.723 16 25.242 18.688 6.195 1.331 99.405 1.92 300.672 1.92 326.195 0 300.646-1.050 316.672 13.056 11.622 10.24 16.845 21.99 16.845 38.016 0 20.71-9.574 36.070-28.646 45.978l-8.064 4.198-296.576 0.205c-163.123 0.128-298.598-0.077-301.056-0.435zM1006.208 905.395c-3.942-1.485-7.424-2.688-7.757-2.714-0.307-0.026-109.978-108.877-243.686-241.92l-243.098-241.869-61.85 61.568c-34.022 33.869-64.666 63.078-68.122 64.922-4.864 2.611-10.112 3.354-23.296 3.354-19.661 0-24.602-1.946-36.813-14.515-10.829-11.136-14.029-20.506-13.005-38.118 0.691-12.058 1.664-15.514 6.426-22.886 8.371-13.005 164.301-167.757 174.208-172.877 11.597-6.016 33.306-6.042 45.005-0.051 6.042 3.098 79.616 75.622 271.821 267.904l263.526 263.68 3.021 10.598c6.835 23.91-2.458 47.027-24.064 59.75-9.856 5.811-31.053 7.398-42.317 3.174z" />
<glyph unicode="&#xe91f;" glyph-name="check" horiz-adv-x="1418" d="M1320.33 957.558c-4.884-1.221-13.391-4.45-18.905-7.207-6.932-3.466-135.444-130.363-419.407-414.129l-409.364-409.127-173.135 172.938c-190.622 190.464-183.414 184.162-215.473 186.762-58.132 4.647-100.47-56.281-76.721-110.474 3.663-8.35 49.034-55.020 211.732-217.797 170.26-170.378 209.369-208.345 220.121-213.78 11.303-5.711 15.793-6.617 33.595-6.617 18.274 0 21.977 0.788 33.595 7.010 10.398 5.593 102.676 96.374 455.050 447.724 496.286 494.828 455.129 450.678 455.129 487.975 0 22.922-6.932 40.133-22.331 55.532-18.156 18.156-49.861 27.254-73.886 21.189z" />
<glyph unicode="&#xe920;" glyph-name="chevron-down" horiz-adv-x="1792" d="M103.296 956.864c-22.848-3.84-49.664-18.688-67.136-37.12-21.809-22.502-35.253-53.222-35.253-87.083 0-6.876 0.554-13.623 1.621-20.198l-0.096 0.72c6.592-44.416-19.84-15.68 419.84-455.616 460.096-460.416 411.392-417.536 473.728-417.536s13.632-42.88 473.728 417.536c439.68 439.936 413.248 411.2 419.84 455.616 0.895 5.664 1.407 12.196 1.407 18.847 0 70.127-56.849 126.976-126.976 126.976-7.163 0-14.188-0.593-21.028-1.733l0.742 0.102c-42.752-6.656-21.12 13.12-400.512-365.824l-347.2-346.752-347.2 346.752c-376.832 376.384-357.824 358.912-398.144 365.504-6.984 1.541-15.006 2.424-23.234 2.424-8.549 0-16.875-0.953-24.879-2.758l0.753 0.143z" />
<glyph unicode="&#xe921;" glyph-name="chevron-left" horiz-adv-x="585" d="M500.114 959.013c-11.224-1.739-21.222-5.964-29.754-12.099l0.205 0.14c-3.84-2.523-81.591-79.506-224.658-222.464-120.357-120.21-222.062-222.245-226.048-226.779-7.5-7.938-13.277-17.587-16.679-28.295l-0.143-0.523c-2.011-6.656-2.377-9.801-2.377-20.992s0.366-14.336 2.377-20.992c3.255-10.606 8.155-19.017 16.823-28.818 14.409-16.311 445.696-446.208 451.182-449.719 14.373-9.216 23.918-11.959 41.435-11.849 10.533 0.037 14.043 0.475 20.517 2.414 23.49 7.49 41.625 25.625 48.969 48.586l0.146 0.53c1.938 6.473 2.377 9.984 2.414 20.517 0.11 17.518-2.633 27.063-11.849 41.435-2.194 3.438-74.203 76.178-199.534 201.618l-196.096 196.279 196.096 196.279c125.33 125.44 197.339 198.181 199.534 201.618 9.070 14.117 11.922 23.918 11.922 40.96-0.037 14.373-2.267 23.991-8.046 34.377-15.397 27.721-46.043 42.898-76.434 37.778z" />
<glyph unicode="&#xe922;" glyph-name="chevron-right" horiz-adv-x="585" d="M61.111 959.049c-22.797-4.191-41.66-18.221-52.321-37.432l-0.195-0.383c-5.778-10.386-8.009-20.005-8.046-34.377 0-17.042 2.853-26.843 11.922-40.96 2.194-3.438 74.203-76.178 199.534-201.618l196.096-196.279-196.096-196.279c-125.33-125.44-197.339-198.181-199.534-201.618-9.216-14.373-11.959-23.918-11.849-41.435 0.037-10.533 0.475-14.043 2.414-20.517 7.49-23.49 25.625-41.625 48.586-48.969l0.53-0.146c6.473-1.938 9.984-2.377 20.517-2.414 17.518-0.11 27.063 2.633 41.435 11.849 5.486 3.511 436.773 433.408 451.182 449.719 7.5 7.938 13.277 17.587 16.679 28.295l0.143 0.523c2.011 6.656 2.377 9.801 2.377 20.992s-0.366 14.336-2.377 20.992c-3.546 11.231-9.323 20.881-16.856 28.854l0.033-0.035c-3.986 4.535-105.691 106.569-226.048 226.779-143.067 142.958-220.818 219.941-224.658 222.464-6.013 4.401-13.051 7.842-20.653 9.916l-0.449 0.104c-8.119 2.304-24.942 3.328-32.366 1.975z" />
<glyph unicode="&#xe923;" glyph-name="chevron-up" horiz-adv-x="1792" d="M871.424 957.056c-38.976-6.976-15.36 15.104-449.216-419.072-439.68-439.936-413.184-411.2-419.776-455.616-0.84-5.523-1.32-11.895-1.32-18.38 0-50.74 29.377-94.619 72.050-115.556l0.758-0.336c15.808-7.36 20.224-8.064 54.528-8.064 35.008 0 38.4 0.576 55.232 8.64 15.936 7.616 56.576 47.168 365.12 355.328l347.2 346.816 347.2-346.816c308.544-308.16 349.184-347.712 365.12-355.328 16.832-8.064 20.224-8.64 55.296-8.64 36.16 0 38.080 0.32 57.024 9.664 42.040 21.299 70.354 64.189 70.354 113.692 0 6.698-0.518 13.276-1.517 19.694l0.091-0.714c-6.592 44.352 18.88 16.64-410.88 447.104-215.36 215.744-397.952 397.44-405.76 403.712-8.697 6.791-18.632 12.635-29.291 17.092l-0.853 0.316c-14.926 4.996-32.113 7.878-49.973 7.878-7.542 0-14.963-0.514-22.231-1.509l0.844 0.095z" />
<glyph unicode="&#xe924;" glyph-name="chevrons-down" horiz-adv-x="878" d="M55.954 957.769c-24.539-5.303-46.775-26.953-53.285-51.785-4.937-18.944-2.085-40.265 7.497-56.064 3.511-5.815 60.599-63.781 195.986-199.022 176.603-176.457 191.744-191.195 200.521-195.401 9.436-4.486 20.503-7.106 32.183-7.106s22.747 2.62 32.648 7.303l-0.465-0.198c8.814 4.206 23.808 18.871 202.057 197.12 214.382 214.345 199.607 198.181 203.41 222.903 0.647 3.581 1.017 7.703 1.017 11.911 0 19.929-8.294 37.922-21.619 50.713l-0.024 0.023c-12.814 13.349-30.807 21.643-50.736 21.643-4.208 0-8.33-0.37-12.334-1.079l0.424 0.062c-24.503-3.767-12.069 7.424-192.366-172.654l-162.011-161.829-162.011 161.719c-125.769 125.55-163.73 162.633-169.655 165.705-14.555 7.643-33.609 9.874-51.237 6.034zM55.954 445.769c-24.539-5.303-46.775-26.953-53.285-51.785-4.937-18.944-2.085-40.265 7.497-56.064 3.511-5.815 60.599-63.781 195.986-199.022 176.603-176.457 191.744-191.195 200.521-195.401 9.436-4.486 20.503-7.106 32.183-7.106s22.747 2.62 32.648 7.303l-0.465-0.198c8.814 4.206 23.808 18.871 202.057 197.12 214.382 214.345 199.607 198.181 203.41 222.903 0.647 3.581 1.017 7.703 1.017 11.911 0 19.929-8.294 37.922-21.619 50.713l-0.024 0.023c-12.814 13.349-30.807 21.643-50.736 21.643-4.208 0-8.33-0.37-12.334-1.079l0.424 0.062c-24.503-3.767-12.069 7.424-192.366-172.654l-162.011-161.829-162.011 161.719c-125.769 125.55-163.73 162.633-169.655 165.705-14.555 7.643-33.609 9.874-51.237 6.034z" />
<glyph unicode="&#xe925;" glyph-name="chevrons-left" horiz-adv-x="1195" d="M495.104 957.909c-24.704-4.139-15.061 4.736-256.597-236.587-200.021-199.893-224.981-225.493-229.589-235.648-5.092-10.979-8.062-23.831-8.062-37.376s2.97-26.397 8.295-37.939l-0.233 0.563c4.608-10.197 29.568-35.755 229.589-235.648 246.272-246.101 231.552-232.704 260.949-237.056 3.828-0.614 8.241-0.966 12.736-0.966 46.657 0 84.48 37.823 84.48 84.48 0 4.482-0.349 8.882-1.021 13.175l0.061-0.476c-4.352 29.184 5.419 18.219-201.216 225.195l-188.331 188.672 188.331 188.629c206.635 206.976 196.864 196.053 201.216 225.195 6.741 45.568-24.192 88.576-69.077 95.915-4.65 1.027-9.99 1.616-15.468 1.616-5.692 0-11.235-0.635-16.563-1.839l0.501 0.095zM1092.437 957.909c-24.704-4.139-15.061 4.736-256.597-236.587-246.229-246.059-232.064-230.485-236.928-260.096-2.688-16.043-0.043-34.048 7.339-50.304 4.608-10.197 29.312-35.541 229.589-235.648 246.272-246.101 231.552-232.704 260.949-237.056 3.828-0.614 8.241-0.966 12.736-0.966 46.657 0 84.48 37.823 84.48 84.48 0 4.482-0.349 8.882-1.021 13.175l0.061-0.476c-4.352 29.184 5.419 18.219-201.216 225.195l-188.331 188.672 188.331 188.629c206.635 206.976 196.864 196.053 201.216 225.195 6.741 45.568-24.192 88.576-69.077 95.915-4.65 1.027-9.99 1.616-15.468 1.616-5.692 0-11.235-0.635-16.563-1.839l0.501 0.095z" />
<glyph unicode="&#xe926;" glyph-name="chevrons-right" horiz-adv-x="1195" d="M68.864 957.995c-43.264-7.723-73.856-51.285-67.243-95.872 4.352-29.141-5.419-18.219 201.216-225.195l188.331-188.629-188.331-188.672c-206.635-206.976-196.864-196.011-201.216-225.195-0.611-3.817-0.96-8.217-0.96-12.699 0-46.657 37.823-84.48 84.48-84.48 4.495 0 8.908 0.351 13.213 1.027l-0.477-0.062c29.397 4.352 14.677-9.045 260.949 237.056 200.021 199.893 224.981 225.451 229.589 235.648 5.093 11.065 8.064 24.008 8.064 37.645 0 12.924-2.667 25.224-7.482 36.381l0.229-0.596c-3.968 9.6-27.819 34.133-224.683 231.381-121.088 121.344-224.469 223.787-229.717 227.669-5.486 4.021-11.733 7.595-18.369 10.432l-0.617 0.235c-11.648 4.437-33.792 6.272-46.976 3.925zM666.197 957.995c-43.264-7.723-73.856-51.285-67.243-95.872 4.352-29.141-5.419-18.219 201.216-225.195l188.331-188.629-188.331-188.672c-206.635-206.976-196.864-196.011-201.216-225.195-0.611-3.817-0.96-8.217-0.96-12.699 0-46.657 37.823-84.48 84.48-84.48 4.495 0 8.908 0.351 13.213 1.027l-0.477-0.062c29.397 4.352 14.677-9.045 260.949 237.056 200.021 199.893 224.981 225.451 229.589 235.648 5.093 11.065 8.064 24.008 8.064 37.645 0 12.924-2.667 25.224-7.482 36.381l0.229-0.596c-3.968 9.6-27.819 34.133-224.683 231.381-121.088 121.344-224.469 223.787-229.717 227.669-5.486 4.021-11.733 7.595-18.369 10.432l-0.617 0.235c-11.648 4.437-33.792 6.272-46.976 3.925z" />
<glyph unicode="&#xe927;" glyph-name="chevrons-up" horiz-adv-x="878" d="M421.669 957.879c-6.42-1.591-12.021-3.684-17.301-6.324l0.478 0.217c-10.423-5.449-387.109-381.184-394.679-393.691-6.238-10.529-9.924-23.208-9.924-36.747 0-40.315 32.682-72.997 72.997-72.997 3.968 0 7.862 0.317 11.658 0.926l-0.417-0.055c24.503 3.767 12.069-7.424 192.366 172.654l162.011 161.829 162.011-161.829c180.297-180.078 167.863-168.887 192.366-172.654 23.881-3.657 45.495 3.438 62.647 20.626 17.189 17.152 24.283 38.766 20.626 62.647-3.767 24.686 10.569 8.887-200.485 220.306-123.721 123.941-192.622 191.963-198.29 195.694-4.63 3.076-9.945 5.756-15.574 7.774l-0.517 0.162c-7.006 1.871-15.050 2.945-23.345 2.945-5.877 0-11.628-0.539-17.207-1.571l0.579 0.089zM421.669 445.879c-6.42-1.591-12.021-3.684-17.301-6.324l0.478 0.217c-10.423-5.449-387.109-381.184-394.679-393.691-6.238-10.529-9.924-23.208-9.924-36.747 0-40.315 32.682-72.997 72.997-72.997 3.968 0 7.862 0.317 11.658 0.926l-0.417-0.055c24.503 3.767 12.069-7.424 192.366 172.654l162.011 161.829 162.011-161.829c180.297-180.078 167.863-168.887 192.366-172.654 23.881-3.657 45.495 3.438 62.647 20.626 17.189 17.152 24.283 38.766 20.626 62.647-3.767 24.686 10.569 8.887-200.485 220.306-123.721 123.941-192.622 191.963-198.29 195.694-4.63 3.076-9.945 5.756-15.574 7.774l-0.517 0.162c-7.006 1.871-15.050 2.945-23.345 2.945-5.877 0-11.628-0.539-17.207-1.571l0.579 0.089z" />
<glyph unicode="&#xe928;" glyph-name="chrome" d="M470.179 958.138c-128.326-10.426-253.952-72.448-337.431-166.563-8.588-9.681-16.849-17.594-18.409-17.594-9.030 0-21.248-5.818-29.859-14.196-11.404-11.101-15.546-23.040-13.801-39.913 1.071-10.496 0.884-11.217-6.028-23.040-29.975-51.316-53.364-124.23-61.487-191.651-2.909-24.25-2.909-90.112 0-114.362 11.311-93.836 47.011-182.295 102.633-254.278 85.481-110.685 208.966-180.503 349.021-197.376 24.25-2.909 90.112-2.909 114.362 0 68.119 8.215 137.076 30.394 192.582 61.975 131.933 75.031 223.348 200.657 251.951 346.159 7.424 37.841 9.379 58.764 9.379 100.701s-1.955 62.86-9.379 100.701c-37.795 192.326-186.391 348.23-377.135 395.66-37.837 9.74-81.274 15.331-126.017 15.331-14.213 0-28.293-0.564-42.221-1.671l1.838 0.117zM558.080 864.279c113.99-12.055 220.137-72.96 289.792-166.26l12.753-17.059-190.953-1.001c-128.535-0.675-193.745-1.606-199.494-2.863-4.678-1.024-15.43-3.887-23.878-6.377-64.116-18.758-119.226-66.63-146.036-126.813-4.422-9.937-5.958-12.009-7.587-10.24-3.537 3.863-107.008 170.426-107.729 173.428-0.838 3.398 25.786 33.071 46.313 51.596 89.065 80.524 206.22 118.365 326.819 105.588zM219.299 474.903c48.826-78.127 94.417-149.76 101.329-159.139 44.87-61.044 104.727-94.72 177.129-99.654l15.639-1.071-49.757-82.897c-49.792-86.251-67.133-114.603-84.579-142.883l32.169 56.029-2.653-3.956-17.827 5.516c-121.693 37.655-219.183 126.65-266.938 243.689-20.48 50.199-30.045 99.887-30.161 156.602-0.070 43.636 3.677 72.215 14.848 112.943 5.958 21.76 18.874 56.879 20.922 56.879 0.628 0 41.076-63.93 89.879-142.057zM549.26 582.842c46.569-13.056 84.41-51.13 97.908-98.49 5.050-17.734 5.213-55.226 0.279-71.959-3.142-10.705-3.305-10.915-12.009-14.15-12.986-4.841-20.015-12.87-38.865-44.474l-16.989-28.463-11.171-5.097c-19.386-8.844-30.976-11.148-56.413-11.171-18.781-0.023-25.507 0.675-36.352 3.77-47.92 13.935-84.892 50.915-98.563 97.825l-0.253 1.014c-4.957 17.478-5.306 53.457-0.698 70.493 14.732 54.342 59.881 95.441 114.502 104.239 13.847 2.234 44.637 0.372 58.624-3.537zM907.916 584.588c2.746-5.143 13.056-43.823 15.965-59.951 9.402-52.061 8.867-111.011-1.489-161.117-24.925-120.669-105.030-227.91-212.852-284.998-57.693-30.511-116.177-46.22-183.436-49.222-8.657-0.396-15.5-0.233-15.174 0.349 0.303 0.582 31.535 52.759 69.376 115.921 61.3 102.307 69.679 115.456 76.707 120.623 13.009 9.565 36.143 34.839 47.686 52.108 46.22 69.213 52.34 155.695 16.291 231.075-5.185 10.674-10.227 19.531-15.758 28.040l0.608-0.997-7.75 11.52h104.006c101.748 0 104.076-0.070 105.821-3.351z" />
<glyph unicode="&#xe929;" glyph-name="circle" d="M480.419 958.999l-25.6-2.537c-80.035-8.006-163.84-39.145-232.96-86.575-37.981-26.065-80.826-65.559-107.729-99.328-110.336-138.426-142.732-317.044-87.761-483.84 88.413-268.265 377.344-413.137 646.912-324.352 108.269 36.395 197.725 104.786 259.55 193.811l1.104 1.68c42.659 61.882 73.239 139.287 84.061 212.852 21.248 144.384-16.826 285.137-108.148 399.849-16.547 20.806-54.481 58.74-75.287 75.287-76.591 60.975-162.141 97.35-258.56 109.987-18.316 2.397-81.967 4.515-95.581 3.165zM558.941 864.209c56.343-5.795 120.669-27.625 171.078-58.065 37.12-22.412 81.594-61.463 108.521-95.325 41.239-51.805 71.145-115.363 83.898-178.269 10.752-52.969 10.752-116.131 0-169.1-10.1-49.734-33.024-104.82-61.231-147.107-41.868-62.743-96.768-110.918-164.026-143.965-60.323-29.626-117.039-42.705-185.181-42.705s-124.858 13.079-185.181 42.705c-43.846 21.551-76.404 44.847-110.988 79.453-67.212 67.212-108.66 153.018-120.343 249.228-2.397 19.805-2.397 74.077 0 93.882 10.048 82.68 42.299 156.376 90.54 216.733l-0.66-0.855c17.315 21.783 50.153 53.574 73.193 70.912 87.226 65.606 190.068 93.859 300.381 82.479z" />
<glyph unicode="&#xe92a;" glyph-name="clipboard" horiz-adv-x="838" d="M263.564 958.58c-39.145-6.726-72.844-41.356-75.962-78.033-1.303-15.407 3.421-13.684-39.913-14.522-27.020-0.512-40.751-1.35-47.267-2.886-21.388-4.98-41.449-14.545-56.716-26.996-22.435-18.316-38.26-50.641-42.263-86.295-0.931-8.122-1.42-131.212-1.443-347.857 0-371.759-0.535-349.999 9.030-369.873 5.748-11.939 17.315-25.67 39.191-46.545 21.015-20.038 35.002-30.58 51.293-38.609 22.784-11.241-1.769-10.449 319.395-10.449 314.438 0 295.261-0.512 312.599 8.239 12.474 6.307 22.877 16.803 35.072 35.398l10.915 16.64 16.64 10.915c18.595 12.195 29.091 22.598 35.398 35.095 8.89 17.594 8.355-6.865 7.959 363.124l-0.372 336.943-3.91 11.171c-7.866 22.365-19.2 38.353-48.407 68.212-39.54 40.401-48.337 44.195-102.586 44.195-34.327 0-30.673-1.606-32 14.103-2.7 31.767-29.393 63.558-62.929 74.938l-11.287 3.817-152.902 0.209c-84.108 0.116-155.881-0.303-159.535-0.931zM558.545 820.364v-46.080h-279.273v92.16h279.273v-46.080zM186.275 772.073c0.538-2.134 0.846-4.584 0.846-7.106 0-0.251-0.003-0.501-0.009-0.751l0.001 0.037c0-12.614 7.471-32.233 17.455-45.824 10.705-14.592 28.044-27.089 45.964-33.187l11.287-3.817h314.182l11.287 3.817c24.217 8.317 43.574 25.434 54.628 47.442l0.249 0.547c5.213 10.566 7.377 18.409 8.401 30.58l0.838 9.775 50.153 0.768 13.079-12.963c7.191-7.121 16.803-17.524 21.341-23.156l8.285-10.193v-641.908l-12.218-8.076c-14.706-9.624-26.892-21.832-36.202-36.089l-0.289-0.472-7.494-11.473h-547.933l-6.237 4.119c-3.421 2.281-13.917 11.45-23.273 20.387l-17.059 16.244v334.22c0 241.943 0.442 336.291 1.559 341.644 4.957 23.296 13.94 27.136 64.279 27.485 22.551 0.14 26.135-0.14 26.88-2.048z" />
<glyph unicode="&#xe92b;" glyph-name="clock" d="M470.179 958.138c-83.386-6.772-168.541-35.91-237.521-81.268-128.628-84.573-210.967-217.949-229.492-371.689-2.909-24.25-2.909-90.112 0-114.362 11.311-93.836 47.011-182.295 102.633-254.278 85.481-110.685 208.966-180.503 349.021-197.376 24.25-2.909 90.112-2.909 114.362 0 68.119 8.215 137.076 30.394 192.582 61.975 131.933 75.031 223.348 200.657 251.951 346.159 7.424 37.841 9.379 58.764 9.379 100.701s-1.955 62.86-9.379 100.701c-37.795 192.326-186.391 348.23-377.135 395.66-37.837 9.74-81.274 15.331-126.017 15.331-14.213 0-28.293-0.564-42.221-1.671l1.838 0.117zM558.080 864.279c151.087-15.988 284.090-116.62 342.109-258.816 20.666-50.641 30.092-100.026 30.092-157.463 0-45.428-4.166-75.427-16.477-118.156-30.348-105.449-107.101-199.889-204.265-251.322-63.418-33.559-125.231-48.849-197.539-48.849-59.974 0-108.381 9.565-161.792 31.953-126.236 54.216-219.216 164.767-248.101 299.126l-0.499 2.767c-10.799 52.224-10.799 116.736 0 168.96 28.137 136.239 123.695 250.973 252.928 303.709 63.441 25.879 133.329 35.537 203.543 28.090zM501.271 772.189c-14.452-3.584-24.925-12.474-31.395-26.601l-4.026-8.774 0.465-151.668 0.465-151.645 4.655-7.936c2.56-4.352 7.145-10.007 10.17-12.567 3.049-2.56 50.246-26.996 104.913-54.295l99.398-49.641h11.729c27.136 0 45.987 18.735 46.336 46.080 0.163 13.847-6.912 28.532-17.361 36.026-3.98 2.863-43.543 23.366-87.901 45.521l-80.64 40.332-0.023 130.118v130.141l-4.003 8.564c-9.472 20.364-31.86 31.535-52.783 26.345z" />
<glyph unicode="&#xe92c;" glyph-name="cloud-drizzle" d="M347.31 958.192c-31.744-3.159-67.279-8.955-88.739-14.423-86.604-22.049-141.813-68.782-202.098-171.052-30.415-51.592-46.429-98.696-53.248-156.607-3.29-27.866-2.919-96.343 0.61-118.61 12.898-81.027 53.095-148.001 127.129-211.837 26.145-22.528 36.951-26.711 55.274-21.395 19.151 5.578 31.243 21.896 31.178 42.071-0.065 16.428-3.769 22.070-29.543 45.1-63.662 56.93-91.441 104.078-99.11 168.197-3.943 32.964-1.242 84.099 6.188 117.607 10.175 45.884 28.367 83.968 63.706 133.294 33.661 46.995 61.287 69.371 103.359 83.75 47.736 16.297 127.434 22.833 169.113 13.878 55.078-11.83 114.1-41.505 149.395-75.079 16.994-16.166 52.311-55.906 66.299-74.578 10.719-14.292 21.351-34.576 25.731-49.043 4.597-15.186 10.61-24.075 20.698-30.546l8.955-5.752 46.124-0.959c51.113-1.068 56.342-2.026 78.695-14.445 17.822-9.913 52.006-36.494 70.024-54.425 19.826-19.761 26.297-31.112 34.119-59.871 4.096-15.011 4.662-20.24 4.771-43.531 0.153-40.023-5.229-61.004-26.45-103.054-24.118-47.758-36.842-64.73-56.385-75.144-17.277-9.194-26.363-20.981-28.214-36.515-2.113-17.931 7.408-34.86 24.271-43.161 14.772-7.277 25.556-6.623 43.357 2.571 29.26 15.142 51.679 37.060 71.353 69.785 13.399 22.267 38.367 73.423 44.163 90.461 30.611 89.938 14.881 190.377-39.086 249.703-14.837 16.319-22.288 23.138-44.991 41.113-61.070 48.346-99.263 63.597-159.417 63.641l-17.974 0.022-6.166 12.484c-12.702 25.644-28.28 46.821-63.532 86.343-27.888 31.308-41.134 43.967-63.314 60.634-51.263 38.904-113.469 66.119-181.217 76.516l-2.253 0.284c-21.090 3.203-63.292 4.532-82.77 2.571zM335.916 455.952c-16.645-4.662-27.844-17.931-30.72-36.363-0.937-6.079-1.438-31.308-1.111-56.56 0.523-41.897 0.871-46.211 4.14-53.27 15.382-33.247 63.248-33.792 78.565-0.915 3.922 8.432 4.009 9.565 4.031 61.985 0 42.79-0.479 54.555-2.462 59.305-8.606 20.589-31.265 31.722-52.442 25.818zM683.531 456.301c-10.523-2.44-21.896-11.743-27.082-22.136l-4.51-9.020v-54.73c0-52.333 0.174-55.035 3.595-61.527 11.286-21.395 35.513-30.524 56.146-21.177 9.151 4.161 14.227 8.606 20.262 17.778l4.488 6.819 0.501 56.124 0.523 56.124-4.532 9.281c-5.76 11.258-15.991 19.534-28.288 22.554l-0.297 0.062c-9.347 2.048-11.373 2.026-20.807-0.153zM511.15 369.61c-13.138-3.203-25.491-14.358-30.546-27.604-2.527-6.558-2.811-14.162-2.375-60.416 0.458-48.302 0.784-53.466 3.791-59.566 10.458-21.046 35.47-30.502 55.862-21.090 10.48 4.859 17.277 11.177 22.506 20.916 3.53 6.602 3.66 8.824 3.66 62.311 0 53.706-0.109 55.688-3.704 62.42-9.565 17.866-30.393 27.604-49.196 23.029zM334.456 194.506c-10.153-3.137-20.872-12.484-25.818-22.572-3.943-7.974-3.987-8.955-3.987-61.854 0-59.348 0.044-59.697 11.133-72.334 20.044-22.833 56.974-17.866 70.612 9.521l4.423 8.867v107.89l-4.401 8.824c-5.31 10.428-14.424 18.279-25.468 21.812l-0.306 0.085c-9.695 2.919-16.123 2.854-26.188-0.24zM680.916 194.506c-11.382-3.945-20.407-12.189-25.293-22.74l-0.111-0.267c-3.638-8.453-3.726-10.262-3.225-64.49 0.479-51.745 0.763-56.189 3.813-60.939 9.063-14.053 19.587-21.025 34.032-22.506 1.444-0.177 3.117-0.277 4.813-0.277 16.457 0 30.696 9.493 37.541 23.302l0.109 0.244 4.684 9.238-0.022 53.88c-0.022 53.030-0.065 54.032-4.031 62.551-5.114 10.602-14.257 18.58-25.391 22.035l-0.297 0.079c-10.218 3.050-16.471 3.007-26.624-0.109zM508.1 107.727c-14.14-5.273-24.532-15.948-28.432-29.217-1.416-4.771-1.852-22.506-1.482-58.891 0.588-57.431 0.741-58.303 12.048-69.85 9.063-9.281 17.648-12.811 31.156-12.811 17.255-0.022 30.459 8.039 38.977 23.792 3.573 6.602 3.682 8.671 3.682 62.29 0 61.396 0.153 60.503-11.7 73.118-11.024 11.722-30.328 16.776-44.25 11.569z" />
<glyph unicode="&#xe92d;" glyph-name="cloud-lightning" d="M390.819 958.235c-25.273-2.418-73.968-9.913-95.254-14.641-70.002-15.578-130.941-49.152-186.891-102.988-36.668-35.274-57.954-63.771-77.149-103.337-22.746-46.843-30.655-87.606-30.502-156.999 0.131-61.113 7.081-112.814 20.24-150.593 23.247-66.821 62.922-114.884 132.074-160.027 34.141-22.267 52.878-31.57 63.662-31.57 12.462 0 21.046 3.050 29.5 10.501 15.469 13.617 19.391 34.119 10.044 52.42-5.381 10.501-8.998 13.356-41.505 32.594-27.278 16.166-43.378 28.258-62.486 46.995-33.792 33.138-51.505 69.61-59.436 122.444-6.928 46.124-7.647 103.664-1.721 137.826 8.933 51.505 31.94 92.944 74.425 134.1 55.71 53.923 103.598 77.541 183.056 90.265 48.738 7.8 82.77 9.434 110.222 5.251 43.858-6.689 63.619-20.393 124.579-86.321 67.824-73.358 76.539-85.079 88.086-118.544 6.819-19.739 13.617-29.304 25.164-35.47 6.645-3.551 9.891-3.835 54.86-4.771 50.285-1.068 56.32-1.939 73.379-10.523 10.218-5.12 27.147-17.386 44.577-32.267 29.609-25.295 43.727-43.444 52.965-68.020 6.928-18.476 10.022-35.186 12.637-68.259 2.658-34.010 1.394-55.557-4.292-72.53-5.098-15.164-6.798-18.040-20.327-34.62-21.668-26.194-50.517-45.74-83.529-55.677l-1.223-0.316c-8.889-2.527-18.846-5.948-22.136-7.604-25.578-12.942-29.696-50.35-7.647-69.697 12.876-11.308 26.254-13.181 50.307-7.037 41.418 10.589 81.354 33.857 114.252 66.582 51.069 50.83 66.887 96.169 61.745 177.043-4.096 64.294-12.157 96.91-33.095 133.621-15.883 27.909-43.574 58.259-76.386 83.794-51.549 40.132-86.277 52.551-147.129 52.638l-18.323 0.044-6.972 13.835c-15.6 31.047-30.567 49.806-95.798 120.069-39.827 42.899-56.93 58.651-81.702 75.253-26.864 17.996-52.834 28.323-85.232 33.901-19.652 3.377-64.861 4.75-87.040 2.636zM551.631 537.654c-5.004-1.734-9.344-4.005-13.271-6.816l0.155 0.106c-6.95-5.294-184.146-268.898-187.893-279.487-6.95-19.696 3.028-43.073 22.158-51.984l8.671-4.031 93.424-0.022c64.882 0 93.445-0.566 93.445-1.83 0-1.002-29.5-45.797-65.558-99.568-70.612-105.254-69.458-103.184-66.952-121.486 1.307-9.499 4.684-16.123 11.961-23.399 9.042-9.042 17.277-12.288 30.96-12.223 13.639 0.087 22.179 3.682 30.916 13.007 7.822 8.345 180.682 267.504 182.991 274.323 2.484 7.299 2.527 19.5 0.109 28.171-2.484 8.955-17.517 23.988-26.45 26.471-4.423 1.22-37.997 1.852-99.263 1.852-50.917 0-92.574 0.566-92.574 1.242s29.565 45.405 65.71 99.415c71.331 106.54 70.395 104.818 67.061 123.12-4.706 25.861-30.197 41.069-55.601 33.138z" />
<glyph unicode="&#xe92e;" glyph-name="cloud-off" d="M40.939 958.507c-18.859-6.187-30.613-21.952-30.635-41.173-0.043-17.237 1.963-19.733 75.115-94.251l67.499-68.736-15.445-11.477c-50.197-37.269-84.075-81.152-106.475-137.856-35.413-89.707-40.427-195.968-12.971-274.88 20.672-59.371 60.437-112.128 121.067-160.683 61.696-49.387 122.283-82.027 177.92-95.893 36.245-9.003 27.2-8.704 256.427-8.704 232.939 0 219.989-0.491 242.539 9.088l7.317 3.115 65.728-66.411c38.72-39.104 68.587-67.925 72.64-70.059 5.12-2.709 9.92-3.627 18.816-3.627 13.589 0 21.973 3.499 31.061 12.971 14.443 15.061 14.997 39.915 1.237 56.619-2.432 2.965-37.653 38.805-78.251 79.637s-213.077 215.168-383.275 387.413c-418.88 423.893-472.384 477.547-480.299 481.621-7.317 3.776-23.232 5.504-30.016 3.285zM397.227 829.568c-16.256-5.803-26.731-19.819-28.16-37.675-0.768-9.515-0.277-12.224 3.712-20.395 8.149-16.619 20.181-23.339 46.208-25.749 58.56-5.397 104.832-19.072 138.24-40.832 13.888-9.045 38.848-34.475 51.072-52.011 20.693-29.696 40.277-72.683 53.141-116.693 7.275-24.896 12.053-32.789 24.149-39.893l8.171-4.8 52.053-0.939c48.341-0.875 52.843-1.237 63.147-4.821 23.616-8.256 68.843-35.072 83.456-49.493 21.589-21.312 46.251-77.824 46.251-105.984 0-11.776-2.837-21.675-13.077-45.611-6.507-15.253-7.829-20.16-7.829-28.992 0-17.152 8.192-30.229 23.467-37.44 5.408-2.657 11.771-4.211 18.497-4.211 11.934 0 22.726 4.892 30.478 12.781l0.006 0.006c6.251 6.421 22.229 41.621 27.605 60.757 12.501 44.459 4.587 92.672-24.661 150.187-27.84 54.784-55.189 79.616-127.701 115.947-32.064 16.064-51.349 20.501-96.363 22.080l-30.464 1.067-5.504 15.36c-24.363 68.117-62.123 128.853-100.907 162.347-49.557 42.773-106.411 64.512-195.648 74.752-27.861 3.2-31.019 3.221-39.339 0.256zM483.563 420.693l267.52-270.507-187.392-0.491c-194.176-0.512-201.323-0.32-227.477 6.613-57.579 15.253-130.539 61.227-182.037 114.709-45.483 47.211-65.835 94.912-68.352 160.149-2.859 73.728 19.669 153.088 56.555 199.296 4.949 6.187 15.488 17.387 23.445 24.896 15.232 14.379 45.397 36.949 48.448 36.245 1.003-0.213 122.176-122.133 269.291-270.912z" />
<glyph unicode="&#xe92f;" glyph-name="cloud-rain" d="M347.31 958.192c-31.744-3.159-67.279-8.955-88.739-14.423-86.604-22.049-141.813-68.782-202.098-171.052-30.415-51.592-46.429-98.696-53.248-156.607-3.29-27.866-2.919-96.343 0.61-118.61 12.898-81.027 53.095-148.001 127.129-211.837 26.145-22.528 36.951-26.711 55.274-21.395 19.151 5.578 31.243 21.896 31.178 42.071-0.065 16.428-3.769 22.070-29.543 45.1-63.662 56.93-91.441 104.078-99.11 168.197-3.943 32.964-1.242 84.099 6.188 117.607 10.175 45.884 28.367 83.968 63.706 133.294 33.661 46.995 61.287 69.371 103.359 83.75 47.736 16.297 127.434 22.833 169.113 13.878 55.078-11.83 114.1-41.505 149.395-75.079 16.994-16.166 52.311-55.906 66.299-74.578 10.719-14.292 21.351-34.576 25.731-49.043 4.597-15.186 10.61-24.075 20.698-30.546l8.955-5.752 46.124-0.959c51.113-1.068 56.342-2.026 78.695-14.445 17.822-9.913 52.006-36.494 70.024-54.425 19.826-19.761 26.297-31.112 34.119-59.871 4.096-15.011 4.662-20.24 4.771-43.531 0.153-40.023-5.229-61.004-26.45-103.054-24.118-47.758-36.842-64.73-56.385-75.144-17.277-9.194-26.363-20.981-28.214-36.515-2.113-17.931 7.408-34.86 24.271-43.161 14.772-7.277 25.556-6.623 43.357 2.571 29.26 15.142 51.679 37.060 71.353 69.785 13.399 22.267 38.367 73.423 44.163 90.461 30.611 89.938 14.881 190.377-39.086 249.703-14.837 16.319-22.288 23.138-44.991 41.113-61.070 48.346-99.263 63.597-159.417 63.641l-17.974 0.022-6.166 12.484c-12.702 25.644-28.28 46.821-63.532 86.343-27.888 31.308-41.134 43.967-63.314 60.634-51.263 38.904-113.469 66.119-181.217 76.516l-2.253 0.284c-21.090 3.203-63.292 4.532-82.77 2.571zM335.916 455.952c-16.449-4.619-27.844-17.953-30.611-35.884-0.98-6.253-1.438-81.484-1.155-187.109 0.545-195.475-0.283-181.64 11.634-195.214 20.044-22.833 56.974-17.866 70.612 9.521l4.423 8.867v184.037c0 156.846-0.349 184.93-2.462 189.963-8.606 20.589-31.265 31.722-52.442 25.818zM683.531 456.301c-10.654-2.462-22.005-11.787-27.169-22.354l-4.466-9.151 0.458-186.804c0.436-181.292 0.545-186.934 3.747-191.924 9.063-14.053 19.587-21.025 34.032-22.506 1.444-0.177 3.117-0.277 4.813-0.277 16.457 0 30.696 9.493 37.541 23.302l0.109 0.244 4.684 9.238v369.076l-4.488 9.020c-5.447 10.894-16.733 19.739-28.454 22.288-9.347 2.048-11.373 2.026-20.807-0.153zM511.15 369.61c-8.345-2.026-15.229-6.297-21.657-13.399-12.484-13.835-11.765-0.632-11.242-205.17 0.523-204.168-0.414-188.612 11.983-201.27 9.063-9.303 17.648-12.811 31.156-12.811 17.517 0 30.785 8.279 39.478 24.641 3.050 5.73 3.181 13.857 3.181 191.989v186.041l-3.704 6.95c-9.565 17.866-30.393 27.604-49.196 23.029z" />
<glyph unicode="&#xe930;" glyph-name="cloud-snow" horiz-adv-x="1337" d="M453.433 957.639c-66.418-6.628-126.578-18.944-162.645-33.28-76.316-30.293-131.356-77.824-187.136-161.564-62.123-93.269-88.576-160.284-99.413-251.762-4.409-37.063-3.84-125.611 0.967-156.302 14.364-91.477 52.537-163.442 126.692-238.763 26.596-27.022 59.989-56.092 70.997-61.781 18.375-9.5 44.999-5.86 61.156 8.334 18.318 16.156 24.434 36.096 17.92 58.539-4.011 13.824-5.49 15.474-53.532 60.132-83.797 77.938-114.802 146.062-114.802 252.331 0 95.147 19.484 164.011 68.324 241.408 64.085 101.547 113.209 140.146 201.045 158.009 43.036 8.732 76.004 12.146 117.22 12.060 35.044-0.057 43.321-0.796 65.735-5.888 83.001-18.887 155.278-57.998 207.218-112.213 61.099-63.744 91.591-106.382 104.619-146.29 7.14-21.817 16.64-34.759 30.976-42.212l11.975-6.201h49.124c60.786 0 72.135-1.764 100.75-15.644 38.798-18.773 102.912-70.713 121.941-98.759 19.655-28.928 32.228-80.27 30.037-122.624-2.361-45.625-11.577-77.084-37.376-127.659-30.549-59.932-44.231-77.796-71.452-93.497-20.622-11.89-29.070-20.907-34.276-36.551-12.089-36.466 14.763-73.244 53.589-73.387 35.556-0.142 87.694 40.334 121.287 94.094 19.001 30.436 50.916 93.724 59.819 118.642 37.518 105.017 26.197 224.711-29.013 307.228-21.276 31.801-93.98 94.748-142.336 123.221-22.357 13.141-51.371 25.771-70.514 30.663-17.124 4.38-50.688 7.765-77.596 7.851l-20.224 0.057-6.514 13.852c-17.55 37.177-61.468 93.497-117.589 150.756-73.785 75.264-177.323 126.834-288.91 143.844-27.534 4.181-82.631 5.916-108.060 3.356zM443.733 188.672c-26.709-4.665-45.141-26.681-45.312-54.101-0.199-32.228 23.068-56.775 53.902-56.86 16.555-0.057 26.226 2.958 36.352 11.321 13.682 11.292 19.854 23.012 21.077 40.050 0.626 8.818-0.085 18.204-1.764 23.268-3.186 9.728-17.835 26.567-27.364 31.488-9.074 4.693-25.458 6.827-36.892 4.836zM896.455 188.843c-18.394-3.509-33.396-15.51-40.984-31.681l-0.146-0.347c-5.49-12.089-5.461-34.987 0.057-46.848 5.177-11.093 18.745-24.32 29.668-28.871 10.325-4.295 32.882-4.466 42.809-0.313 10.837 4.523 25.856 18.887 30.549 29.184 5.433 11.918 5.404 34.873-0.028 46.848-9.358 19.616-29.031 32.928-51.814 32.928-3.573 0-7.070-0.327-10.462-0.954l0.352 0.054zM670.123 75.122c-27.79-4.096-48.27-30.805-45.682-59.506 1.934-21.419 13.028-37.66 31.659-46.336 31.346-14.592 68.523 1.621 78.308 34.133 3.954 13.17 3.925 19.484-0.284 33.621-8.050 27.079-34.048 42.553-64 38.087zM444.132-38.514c-5.12-0.91-12.26-3.157-15.9-5.035-8.334-4.324-20.48-14.478-20.48-17.152 0-1.138 20.309-2.020 47.218-2.020h47.246l-7.68 7.993c-4.098 4.267-8.699 8.001-13.723 11.119l-0.3 0.173c-8.818 4.636-25.316 6.855-36.38 4.921zM896.455-38.428c-12.060-2.219-20.423-6.656-29.867-15.787l-7.623-7.396 23.95-0.626c13.17-0.341 34.731-0.341 47.9 0l23.95 0.626-7.794 7.595c-10.396 10.194-24.651 16.486-40.376 16.486-3.584 0-7.092-0.327-10.496-0.953l0.354 0.054z" />
<glyph unicode="&#xe931;" glyph-name="cloud" horiz-adv-x="1365" d="M413.013 957.696c-94.549-9.387-167.14-48.412-250.311-134.571-94.692-98.076-138.012-182.443-154.681-301.113-4.864-34.731-8.533-106.155-6.912-135.452 5.746-104.903 30.35-173.284 86.955-241.636 42.297-51.058 114.517-104.96 194.389-145.010 72.875-36.58 136.562-56.007 202.24-61.753 19.371-1.678 116.537-2.162 304.924-1.536 293.319 0.996 281.23 0.569 322.219 11.548 100.039 26.738 190.748 107.548 229.518 204.43 25.372 63.346 29.838 131.243 13.454 204.26-10.439 46.592-33.195 101.547-55.808 134.855-42.524 62.635-115.115 113.010-191.317 132.779-26.766 6.94-39.31 8.42-82.148 9.842l-42.837 1.394-9.671 23.893c-23.040 56.917-46.023 91.961-90.027 137.358-86.784 89.458-192.825 136.903-351.659 157.355-34.133 4.409-91.364 6.030-118.329 3.356zM509.724 842.695c43.833-5.006 104.505-17.636 137.045-28.501 116.082-38.798 196.864-117.39 230.258-223.972 11.833-37.746 14.45-43.378 24.718-52.651 15.161-13.682 19.086-14.478 71.538-14.535 26.027-0.028 57.458-1.052 69.86-2.247 53.931-5.262 104.249-29.81 142.848-69.66 39.396-40.704 68.437-124.871 64.91-188.075-3.897-70.315-43.122-135.367-106.951-177.436-18.546-12.231-41.557-22.414-67.214-29.696l-17.465-4.978-279.893-0.711c-197.689-0.484-285.241 0.057-298.098 1.849-96.256 13.483-220.786 77.54-290.247 149.333-53.333 55.097-72.988 104.676-76.544 193.109-2.361 58.823 5.433 127.716 19.94 176.583 8.277 27.904 27.051 68.409 42.354 91.449 31.545 47.531 97.764 115.883 140.203 144.754 49.92 33.934 109.596 44.914 192.74 35.385z" />
<glyph unicode="&#xe932;" glyph-name="code" horiz-adv-x="1609" d="M494.373 957.586c-7.692-2.501-14.346-5.587-20.544-9.349l0.43 0.242c-17.518-10.386-458.825-453.595-466.542-468.553-8.85-17.079-8.85-47.25 0-64.366 8.558-16.567 449.317-458.459 468.334-469.504 11.849-6.912 15.945-7.826 35.621-7.826 16.823-0.037 24.759 1.243 32.549 5.23 14.738 7.497 26.917 20.663 34.523 37.266 5.522 12.105 6.4 17.262 5.303 32.219-0.695 9.801-3.365 22.016-5.961 27.173-2.56 5.157-94.171 98.999-203.557 208.494l-198.839 199.131 198.839 199.131c109.385 109.531 200.997 203.374 203.557 208.494 2.597 5.157 5.266 17.408 5.961 27.209 1.097 14.921 0.219 20.114-5.303 32.219-8.046 17.518-20.992 30.939-36.498 37.815-13.275 5.851-35.401 8.155-47.872 4.974zM1073.92 955.282c-22.528-8.046-36.937-22.345-45.714-45.349-5.413-14.153-3.986-40.887 2.889-54.638 2.56-5.12 94.135-98.889 203.52-208.421l198.839-199.131-198.839-199.131c-109.385-109.495-200.997-203.337-203.557-208.494-2.597-5.157-5.266-17.371-5.961-27.173-1.097-14.958-0.219-20.114 5.303-32.219 7.607-16.603 19.785-29.769 34.523-37.266 7.79-3.986 15.726-5.266 32.549-5.23 19.675 0 23.771 0.914 35.621 7.826 19.163 11.154 459.849 453.010 468.261 469.504 8.704 17.079 8.704 47.323 0 64.366-8.594 16.823-451.803 460.763-469.76 470.528-9.989 5.401-21.865 8.575-34.483 8.575-8.295 0-16.269-1.372-23.709-3.901l0.519 0.153z" />
<glyph unicode="&#xe933;" glyph-name="codepen" d="M499.945 958.487c-7.471-2.444-7.191-2.281-246.505-157.603-156.439-101.539-236.148-154.252-240.896-159.279-13.265-14.103-12.544-2.932-12.544-193.606s-0.721-179.479 12.544-193.629c4.771-5.097 83.13-56.902 240.896-159.325 128.605-83.456 236.497-153.181 239.779-154.95 8.308-4.422 29.254-4.422 37.562 0 3.281 1.769 111.174 71.494 239.779 154.95 157.766 102.423 236.125 154.228 240.896 159.325 13.265 14.15 12.544 2.956 12.544 193.629s0.721 179.503-12.544 193.606c-4.748 5.027-84.48 57.763-240.896 159.302-128.605 83.456-236.474 153.135-239.709 154.81-6.586 3.375-24.18 4.957-30.906 2.769zM465.85 730.88l-0.047-96-92.719-64.768c-50.991-35.631-93.137-64.815-93.673-64.861-1.606-0.14-149.597 103.843-148.852 104.611 1.839 1.839 332.963 216.832 334.080 216.925 0.698 0.047 1.257-43.101 1.21-95.907zM725.83 719.127c194.066-121.5 248.552-157.399 302.936-193.438l-135.791 84.592c1.117-1.001-146.153-105.216-148.387-105.030-0.535 0.047-42.682 29.231-93.673 64.861l-92.719 64.768-0.047 96c-0.047 52.806 0.349 96 0.838 96 0.512 0 75.59-48.477 166.842-107.753zM587.311 501.434c41.193-28.812 74.868-52.899 74.868-53.504 0-1.908-147.456-104.657-150.179-104.657-3.281 0-150.435 103.121-149.807 104.983 0.419 1.257 148.084 105.379 149.597 105.495 0.372 0.047 34.351-23.505 75.52-52.317zM143.919 486.121c26.438-18.455 49.408-34.676 51.014-36.049 2.676-2.281-1.652-5.725-48.64-38.703-28.369-19.921-52.154-35.91-52.852-35.537-2.141 1.14-1.583 143.849 0.559 143.849 1.024 0 23.482-15.104 49.92-33.559zM931.84 448.093c0-39.354-0.582-71.889-1.28-72.262s-24.553 15.663-52.992 35.631l-51.712 36.305 4.771 3.514c25.041 18.339 97.42 68.259 99.072 68.329 1.676 0.047 2.141-15.337 2.141-71.517zM386.56 316.16l78.499-55.040 0.442-96c0.256-52.806 0-96-0.559-96-0.535 0-76.195 48.896-168.145 108.637l-167.145 108.637 5.562 3.956c3.072 2.188 36.678 25.763 74.705 52.41l69.12 48.431 14.499-10.007c7.983-5.492 49.85-34.769 93.021-65.024zM823.459 336.151c53.941-36.713 75.747-52.159 97.489-67.69l-30.533 20.726c3.724-2.839 1.047-4.655-163.281-111.476-91.904-59.718-167.54-108.591-168.076-108.591-0.559 0-0.815 43.194-0.559 96l0.442 96 185.949 130.281 7.727-5.585c4.236-3.072 36.119-25.437 70.842-49.664z" />
<glyph unicode="&#xe934;" glyph-name="codesandbox" horiz-adv-x="931" d="M416.14 957.533c-7.75-1.932-43.613-21.83-175.313-97.233-127.325-72.913-168.797-95.953-179.549-99.724-29.091-10.217-43.404-21.062-52.783-40.052-7.564-15.29-9.542-28.439-7.191-47.43 2.63-21.318 2.607-385.699-0.047-407.040-3.351-27.020 2.281-45.777 20.573-68.515 11.869-14.755 32.116-33.745 44.893-42.1 16.943-11.101 333.871-191.884 341.318-194.723 3.84-1.443 10.124-3.165 13.964-3.793 5.213-0.861 8.541-2.723 13.196-7.401 9.007-9.076 17.78-12.544 31.814-12.66 9.705-0.070 13.103 0.628 20.433 4.236 4.864 2.397 10.868 6.679 13.382 9.542 2.767 3.399 6.747 5.719 11.271 6.298l0.086 0.009c3.747 0.628 10.031 2.351 13.964 3.84 13.242 4.98 338.874 192.093 346.857 199.284 9.705 8.774 16.943 20.992 23.389 39.494 4.053 11.060 8.853 20.587 14.589 29.453l-0.346-0.571c10.566 16.291 16.151 28.905 18.641 41.914 1.303 6.772 1.652 62.278 1.28 204.8-0.442 176.081-0.745 196.189-3.025 202.612-4.119 11.59-9.635 21.504-25.204 45.405-11.427 17.501-16.733 24.134-23.692 29.603-11.613 9.1-343.831 199.005-355.468 203.171-7.377 2.653-11.799 3.095-26.694 2.7-32.442-0.884-39.401-0.838-55.063 0.233-11.753 0.791-17.873 0.465-25.274-1.35zM460.8 864.349c8.96-0.442 20.457-0.14 25.553 0.675l9.239 1.513 42.333-24.18c23.273-13.312 41.798-24.716 41.169-25.321-2.071-2.071-110.289-61.836-111.942-61.836-1.559 0-109.964 59.764-112.175 61.812-1.862 1.769 82.944 49.78 86.435 48.943 1.699-0.419 10.426-1.14 19.386-1.606zM355.328 710.284c70.26-39.005 97.001-53.108 103.168-54.388 16.593-3.444 17.478-3.049 117.713 52.666-17.228-7.583 14.184 10.019 45.702 27.452l50.345 25.54c3.607 1.629 8.076-0.582 55.249-27.508 28.23-16.105 51.153-29.766 50.944-30.348-0.209-0.605-66.327-43.753-146.921-95.907l-146.572-94.836-9.076 1.583c-2.557 0.532-5.496 0.836-8.506 0.836-3.052 0-6.030-0.313-8.905-0.908l0.283 0.049c-4.422-0.908-8.774-1.699-9.658-1.745-2.537-0.186-303.267 184.087-302.801 185.53 0.512 1.629 109.824 64.442 112.337 64.559 1.024 0.070 44.521-23.599 96.698-52.573zM837.772 561.641l-0.047-67.863-93.37-62.068c-51.363-34.141-96.070-64.442-99.351-67.351-3.833-3.627-7.18-7.707-9.973-12.169l-0.151-0.259-4.189-7.098-0.768-109.777-0.791-109.777-55.855-31.953c-0.705-1.216-19.594-12.081-38.583-22.789l-19.203-9.956c-1.536-0.628-1.932 35.933-1.932 179.735l0.023 180.527 160.954 104.285c88.529 57.344 161.466 104.285 162.118 104.332 0.628 0.047 1.14-30.464 1.117-67.817zM259.142 518.935l160.535-98.164 0.396-180.317c0.233-99.188 0.14-180.34-0.209-180.34-0.326 0-25.972 14.522-57.018 32.256l-56.413 32.256-0.791 108.544c-0.838 117.807-0.256 110.336-9.728 124.486-3.677 5.516-20.852 17.594-102.074 71.773l-97.652 65.164v61.254c0 33.699 0.559 61.277 1.21 61.277s73.449-44.195 161.745-98.188zM156.579 342.598l55.971-37.353v-62.999c0-58.996-0.163-62.929-2.676-61.952-1.466 0.559-23.273 12.8-48.477 27.229-41.425 23.692-46.871 27.299-56.925 37.539l-11.101 11.334 1.327 7.75c0.721 4.259 1.35 32.442 1.396 62.604 0.093 46.615 0.442 54.737 2.304 54.016 1.187-0.442 27.369-17.641 58.182-38.167zM837.818 333.894v-47.383l-7.54-11.194c-9.751-14.476-12.218-19.316-17.967-35.049l-4.748-13.009-41.681-23.831c-22.9-13.126-42.287-23.831-43.055-23.831s-1.373 26.95-1.373 62.58v62.58l57.018 38.167c31.348 20.969 57.53 38.191 58.182 38.26 0.628 0.047 1.164-21.225 1.164-47.29z" />
<glyph unicode="&#xe935;" glyph-name="coffee" horiz-adv-x="1071" d="M219.089 957.743c-12.13-4.083-21.838-12.603-27.385-23.584l-0.124-0.27-5.12-10.473v-80.291c0-87.785-0.233-85.737 10.729-98.746 8.634-10.217 18.036-14.964 31.581-15.942 20.759-1.489 37.097 7.703 45.382 25.46l4.166 8.937-0.023 81.199c-0.023 90.298 0.14 88.832-12.381 101.353-12.102 12.102-31.884 17.315-46.825 12.358zM407.692 958.324c-11.683-2.839-21.969-11.008-30.441-24.204-3.258-5.050-3.491-9.868-3.956-87.901-0.489-77.568-0.326-83.014 2.839-90.112 7.959-17.943 23.343-28.067 42.682-28.067 13.847 0 21.062 2.863 31.511 12.497 14.569 13.428 14.476 12.753 14.476 104.378v80.291l-4.189 8.471c-7.956 15.487-23.821 25.899-42.118 25.899-3.833 0-7.558-0.457-11.126-1.319l0.322 0.066zM590.057 957.114c-5.562-1.699-11.613-5.585-17.245-11.031-14.452-13.987-14.615-15.151-13.987-106.822 0.512-76.311 0.628-78.383 4.399-85.434 9.1-16.989 23.18-25.67 41.728-25.74 14.545-0.047 27.555 5.865 35.817 16.291 10.31 13.033 10.31 13.149 10.38 99.654l0.070 79.383-4.166 8.937c-5.469 11.729-16.384 21.388-28.137 24.879-11.334 3.351-17.641 3.328-28.858-0.116zM31.023 631.133c-8.448-3.212-17.501-10.054-22.016-16.617-9.216-13.452-8.844-3.817-8.937-238.476-0.047-142.848 0.582-225.117 1.815-236.428 4.98-45.615 20.457-79.034 53.155-114.828 30.115-32.931 80.803-65.676 124.276-80.268l17.85-6.004 215.436-0.489c189.51-0.419 216.879-0.14 227.491 2.281 15.616 3.607 44.544 17.757 59.648 29.231 26.112 19.852 85.457 79.36 105.053 105.356 10.985 14.592 23.738 40.122 27.671 55.436 1.629 6.377 3.491 17.617 4.096 24.972l1.14 13.382 13.382 1.14c27.671 2.327 56.32 13.708 81.175 32.233 16.268 12.125 83.386 78.266 99.212 97.769 14.359 17.711 30.417 48.454 34.932 66.909 4.585 18.735 4.143 54.225-0.931 74.799-7.564 30.673-27.508 70.26-50.828 100.934-28.067 36.911-68.189 68.375-101.655 79.732-32.559 11.055 4.561 10.193-456.215 10.636-319.884 0.303-421.516-0.093-425.751-1.699zM745.798 357.376c0-119.366-0.675-187.369-1.885-194.863-2.7-16.71-10.496-29.649-32-53.248-34.607-37.935-66.211-66.281-83.27-74.636l-10.403-5.12h-399.663l-12.497 4.212c-39.424 13.265-87.133 50.967-102.26 80.78-10.985 21.644-10.915 19.945-10.985 233.053l-0.047 193.14h653.033l-0.023-183.319zM879.616 535.343c15.057-5.050 27.276-13.382 42.682-29.068 31.953-32.489 55.319-76.847 55.436-105.239 0.047-9.635-5.748-24.739-13.824-36.143-9.961-14.033-42.356-48.221-66.793-70.447-22.924-20.876-37.632-29.905-51.34-31.511l-8.96-1.071v279.366l15.686-1.024c8.704-0.559 20.806-2.723 27.113-4.864z" />
<glyph unicode="&#xe936;" glyph-name="columns" d="M125.44 958.054c-68.506-8.755-112.717-51.866-122.778-119.706-2.355-15.744-2.662-62.131-2.662-389.146 0-407.552-0.512-386.56 10.189-408.346 13.261-27.008 68.173-78.566 99.968-93.85 24.243-11.674-2.176-10.957 401.178-10.982 237.798-0.026 368.64 0.563 374.63 1.69 12.134 2.278 28.083 10.214 38.016 18.944 4.403 3.891 13.773 15.795 20.787 26.419 12.621 19.123 13.030 19.533 32.154 32.154 10.624 7.014 22.528 16.384 26.419 20.787 8.73 9.933 16.666 25.882 18.944 38.016 1.126 5.99 1.715 136.832 1.69 374.63-0.026 403.354 0.691 376.934-10.982 401.178-9.19 19.098-24.576 38.554-52.019 65.792-26.65 26.419-37.35 34.048-56.064 39.91l-11.469 3.584-378.035 0.23c-214.528 0.128-383.181-0.435-389.965-1.306zM460.8 448v-409.6h-306.688l-7.501 5.427c-4.147 2.995-15.795 13.491-25.882 23.347l-18.381 17.894 0.461 372.173 0.435 372.198 4.045 8.141c5.222 10.496 14.259 16.666 27.546 18.842 2.33 0.41 76.646 0.819 165.12 0.947l160.845 0.23v-409.6zM892.851 839.245c9.83-10.086 20.326-21.709 23.322-25.856l5.427-7.501-0.051-352.589-0.051-352.614-15.488-10.24c-17.434-11.546-26.906-21.197-38.63-39.45l-8.064-12.544-296.115-0.051v819.2h311.782l17.869-18.355z" />
<glyph unicode="&#xe937;" glyph-name="command" d="M140.8 958.182c-66.227-5.197-107.827-31.923-126.95-81.562-10.266-26.701-13.773-56.883-13.773-118.861 0.026-60.8 3.302-81.69 17.126-108.365 18.79-36.326 58.138-65.946 113.024-85.171 32.742-11.469 41.574-12.518 112.538-13.363l64.435-0.768v-204.16l-85.76-0.794c-69.888-0.64-88.73-1.306-101.837-3.635-42.778-7.578-73.446-25.216-91.955-52.89-21.171-31.667-27.622-65.382-27.571-144.41 0.026-61.824 3.251-82.432 17.178-109.338 18.995-36.685 60.16-67.149 115.891-85.76 71.629-23.91 128.845-14.003 186.675 32.333 48.998 39.245 81.434 90.035 87.962 137.728 0.998 7.347 1.818 38.246 1.818 68.685v55.347h204.8v-67.84c0-92.314 2.048-110.566 15.334-136.96 15.923-31.565 39.782-53.478 80.051-73.523 58.419-29.056 115.942-35.942 162.355-19.43 58.854 20.941 121.472 83.558 142.413 142.413 16.512 46.413 9.626 103.936-19.43 162.355-29.133 58.598-68.403 88.243-124.006 93.645-9.318 0.922-47.846 1.664-85.632 1.69l-68.685 0.051v204.8h55.347c61.107 0 74.752 1.229 97.408 8.755 59.878 19.942 123.674 82.893 144.998 143.104 16.486 46.49 9.574 104.218-19.405 162.176-12.262 24.55-22.989 39.859-38.835 55.45-23.526 23.168-51.584 35.277-89.318 38.63-29.082 2.586-111.616 0.87-132.992-2.739-62.643-10.573-98.918-43.366-112.717-101.914-5.274-22.298-6.886-52.736-6.886-129.638v-71.424h-204.493l-0.768 64.435c-0.845 70.963-1.894 79.795-13.363 112.538-27.955 79.795-74.624 122.624-140.058 128.512-20.736 1.869-90.47 1.818-114.918-0.102zM255.949 854.912c17.306-5.146 31.181-24.55 43.955-61.491l6.426-18.586 0.563-61.030 0.538-61.005h-56.858c-64.384 0.026-71.347 0.947-100.122 13.363-29.235 12.595-40.858 22.528-45.645 38.989-2.432 8.346-2.688 16.794-1.946 62.694 1.101 69.581 3.174 78.182 20.096 83.814 13.056 4.326 28.493 5.453 78.541 5.709 36.89 0.179 47.053-0.282 54.451-2.458zM870.349 854.912c17.357-5.171 31.386-24.806 43.853-61.491 5.606-16.461 6.323-20.557 6.374-35.661 0.077-15.565-0.384-18.048-5.171-28.16-7.117-15.078-18.534-29.722-35.558-45.594-15.565-14.541-28.979-23.398-42.496-28.058-7.68-2.662-15.667-3.046-64.666-3.098l-55.885-0.051 0.026 73.805c0 71.194 1.075 93.875 5.12 108.954 5.018 18.56 17.357 21.427 93.952 21.811 36.89 0.179 47.053-0.282 54.451-2.458zM614.4 448v-102.4h-204.8v204.8h204.8v-102.4zM307.2 187.699c0-51.046-0.282-56.294-3.405-65.178-5.786-16.461-13.824-27.904-33.306-47.411-26.266-26.24-45.005-36.557-66.534-36.634-26.24-0.077-70.477 17.101-87.987 34.15-12.544 12.186-13.568 17.485-13.542 68.915 0.051 59.981 2.765 82.406 10.982 90.65 9.114 9.114 24.448 10.522 117.427 10.778l76.365 0.23v-55.501zM870.528 240.486c17.203-5.043 31.181-24.704 43.674-61.466 5.606-16.486 6.323-20.531 6.374-35.661 0.026-15.078-0.512-18.253-4.685-27.315-6.374-13.824-20.966-32.538-37.043-47.411-22.016-20.429-41.242-30.080-60.16-30.182-27.034-0.154-75.392 19.072-90.854 36.122-10.547 11.597-11.034 15.898-11.034 96.41v72.218h72.218c61.056 0 73.651-0.41 81.51-2.714z" />
<glyph unicode="&#xe938;" glyph-name="compass1" d="M470.179 958.138c-83.386-6.772-168.541-35.91-237.521-81.268-128.628-84.573-210.967-217.949-229.492-371.689-2.909-24.25-2.909-90.112 0-114.362 11.311-93.836 47.011-182.295 102.633-254.278 85.481-110.685 208.966-180.503 349.021-197.376 24.25-2.909 90.112-2.909 114.362 0 68.119 8.215 137.076 30.394 192.582 61.975 131.933 75.031 223.348 200.657 251.951 346.159 7.424 37.841 9.379 58.764 9.379 100.701s-1.955 62.86-9.379 100.701c-37.795 192.326-186.391 348.23-377.135 395.66-37.837 9.74-81.274 15.331-126.017 15.331-14.213 0-28.293-0.564-42.221-1.671l1.838 0.117zM558.080 864.279c151.087-15.988 284.090-116.62 342.109-258.816 20.666-50.641 30.092-100.026 30.092-157.463 0-45.428-4.166-75.427-16.477-118.156-30.348-105.449-107.101-199.889-204.265-251.322-63.418-33.559-125.231-48.849-197.539-48.849-59.974 0-108.381 9.565-161.792 31.953-126.236 54.216-219.216 164.767-248.101 299.126l-0.499 2.767c-10.799 52.224-10.799 116.736 0 168.96 28.137 136.239 123.695 250.973 252.928 303.709 63.441 25.879 133.329 35.537 203.543 28.090zM688.64 702.883c-18.013-4.864-310.156-95.465-314.019-97.396-8.283-4.671-14.975-11.289-19.603-19.255l-0.133-0.247c-1.745-3.398-24.809-76.358-51.2-162.118-44.172-143.476-47.942-156.672-47.174-165.423 1.466-16.966 10.705-30.604 25.693-37.935 17.548-8.588 12.567-9.751 182.016 42.333 84.015 25.833 154.88 47.825 157.51 48.873 8.657 3.514 17.967 11.45 22.528 19.2 6.982 11.916 99.84 315.369 99.84 326.284 0 18.316-8.937 33.164-24.576 40.82-8.96 4.399-23.901 6.749-30.883 4.864zM597.667 489.146l-29.882-97.094-96.582-29.766c-53.132-16.361-96.791-29.254-97.047-28.672-0.256 0.605 12.847 44.381 29.137 97.303l29.58 96.209 95.465 29.463c52.503 16.198 96.303 29.51 97.327 29.556s-11.567-43.59-27.997-97.001z" />
</font>
</defs>
</svg>
